<?xml version="1.0" standalone="no"?>
<!DOCTYPE svg PUBLIC "-//W3C//DTD SVG 20010904//EN"
 "http://www.w3.org/TR/2001/REC-SVG-20010904/DTD/svg10.dtd">
<svg version="1.0" xmlns="http://www.w3.org/2000/svg"
 width="700.000000pt" height="700.000000pt" viewBox="0 0 700.000000 700.000000"
 preserveAspectRatio="xMidYMid meet">
<metadata>
Created by potrace 1.14, written by Peter Selinger 2001-2017
</metadata>
<g transform="translate(0.000000,700.000000) scale(0.100000,-0.100000)"
fill="#000000" stroke="none">
<path d="M76 6977 c-21 -12 -48 -38 -58 -57 -19 -34 -20 -86 -3 -215 2 -16 6
-66 10 -110 3 -44 8 -96 10 -115 4 -33 8 -76 19 -210 3 -30 8 -89 11 -130 3
-41 7 -102 10 -135 3 -33 7 -94 10 -135 3 -41 7 -106 10 -145 10 -151 15 -234
20 -340 3 -60 8 -148 10 -195 22 -382 34 -961 34 -1535 0 -550 -5 -846 -26
-1365 -13 -343 -11 -390 15 -433 28 -44 70 -68 120 -69 103 0 163 67 177 197
18 184 29 246 72 440 33 150 132 478 187 620 8 22 40 110 72 195 31 85 64 173
74 195 10 22 29 67 43 101 114 270 233 451 304 458 38 4 76 -10 103 -39 18
-19 22 -35 21 -72 -1 -55 0 -50 -41 -208 -98 -381 -163 -633 -166 -655 -3 -14
-7 -33 -10 -42 -23 -77 -22 -163 3 -196 33 -44 67 -63 126 -69 l58 -6 395 394
c217 217 612 610 877 875 435 433 584 574 685 643 26 19 42 22 74 18 78 -10
129 -68 136 -152 4 -48 1 -61 -23 -96 -14 -23 -246 -260 -513 -529 -721 -721
-822 -833 -822 -909 0 -60 88 -131 162 -131 63 0 87 20 400 336 223 224 308
294 360 294 44 0 90 -23 126 -64 56 -64 55 -115 -4 -206 -33 -50 -96 -114
-432 -444 -118 -115 -178 -194 -188 -244 -13 -66 37 -141 112 -167 74 -25 118
6 384 269 219 216 268 252 333 242 55 -9 105 -49 129 -103 40 -91 7 -143 -257
-403 -202 -198 -255 -268 -248 -327 11 -103 131 -177 214 -132 13 7 76 63 139
124 157 152 185 171 252 173 89 4 146 -45 152 -130 6 -77 -24 -134 -135 -257
-187 -208 -595 -609 -783 -770 -27 -23 -55 -49 -63 -57 -8 -8 -58 -49 -111
-91 -53 -43 -99 -80 -102 -83 -9 -10 -184 -136 -246 -178 -33 -22 -105 -64
-160 -93 -169 -89 -206 -129 -206 -219 1 -105 83 -168 217 -164 33 0 204 5
380 10 556 14 1696 9 2200 -11 44 -1 157 -6 250 -9 94 -4 211 -9 260 -11 50
-3 131 -7 180 -10 171 -8 300 -15 370 -20 39 -2 113 -7 165 -10 52 -3 127 -8
165 -10 39 -3 102 -8 140 -10 182 -13 214 -15 265 -20 30 -3 87 -7 125 -10 39
-2 107 -7 151 -10 71 -6 87 -4 123 14 62 32 84 83 77 180 -3 42 -8 108 -11
146 -3 39 -7 95 -10 125 -2 30 -7 89 -10 130 -3 41 -8 102 -10 135 -3 33 -7
101 -10 150 -4 50 -8 115 -10 145 -2 30 -7 107 -10 170 -3 63 -8 135 -10 160
-2 25 -7 106 -10 180 -3 74 -8 167 -10 205 -3 39 -7 138 -11 220 -3 83 -7 188
-9 235 -28 643 -28 2261 0 2810 1 36 6 142 10 235 12 260 18 380 30 560 3 44
8 112 10 150 3 39 8 97 11 130 3 33 7 86 9 118 9 144 29 378 40 477 17 156 16
198 -5 239 -13 26 -34 48 -59 61 -39 20 -78 21 -261 6 -168 -13 -283 -21 -440
-31 -63 -4 -131 -8 -150 -10 -19 -2 -91 -6 -160 -10 -69 -3 -152 -8 -185 -10
-33 -2 -121 -7 -195 -10 -74 -3 -162 -8 -195 -10 -33 -2 -143 -7 -245 -10
-102 -4 -225 -8 -275 -10 -656 -27 -2086 -27 -2795 0 -196 7 -716 33 -825 40
-27 2 -102 6 -165 10 -63 3 -133 8 -155 10 -22 3 -83 7 -135 10 -148 9 -340
24 -404 31 -21 2 -80 6 -130 9 -81 4 -95 2 -130 -18z"/>
</g>
</svg>
