<svg xmlns="http://www.w3.org/2000/svg" width="234" height="75" viewBox="0 0 234 75">
  <g id="Grupo_3113" data-name="Grupo 3113" transform="translate(-982 -83)">
    <g id="Grupo_3112" data-name="Grupo 3112">
      <path id="Trazado_9288" data-name="Trazado 9288" d="M120.393,28.052a.28.28,0,0,1,0,.178.174.174,0,0,1-.1.118c-.1.037-.236.085-.4.141s-.349.111-.557.162a6.457,6.457,0,0,1-.656.127,4.949,4.949,0,0,1-.713.049,5.322,5.322,0,0,1-2.025-.372,4.686,4.686,0,0,1-1.566-1.039,4.57,4.57,0,0,1-1.016-1.58,5.4,5.4,0,0,1-.36-1.99,5.245,5.245,0,0,1,.388-2.053,4.644,4.644,0,0,1,2.667-2.6,5.456,5.456,0,0,1,2-.36c.085,0,.206.005.367.014s.332.025.515.044.369.041.557.069a3.07,3.07,0,0,1,.494.113.242.242,0,0,1,.183.254v2.046a.174.174,0,0,1-.2.2h-.5a.2.2,0,0,1-.21-.182l-.141-.778a.654.654,0,0,0-.437-.508,2.446,2.446,0,0,0-.875-.141,2.5,2.5,0,0,0-2.2,1.129,3.445,3.445,0,0,0-.487,1.164,6.036,6.036,0,0,0-.148,1.333,5.652,5.652,0,0,0,.2,1.51,3.651,3.651,0,0,0,.614,1.27,2.983,2.983,0,0,0,1.058.875,3.344,3.344,0,0,0,1.529.326,3.388,3.388,0,0,0,.863-.122,4.83,4.83,0,0,0,.706-.233.194.194,0,0,1,.191.014.3.3,0,0,1,.106.141Z" transform="translate(870.441 97.391)" fill="#161615"/>
      <path id="Trazado_9286" data-name="Trazado 9286" d="M124.921,23.869a4.808,4.808,0,0,1-.245,1.531,3.862,3.862,0,0,1-.714,1.27,3.509,3.509,0,0,1-1.127.868,3.387,3.387,0,0,1-1.5.323,3.543,3.543,0,0,1-1.475-.289,3.078,3.078,0,0,1-1.079-.8,3.478,3.478,0,0,1-.663-1.192,4.876,4.876,0,0,1,.021-3,3.829,3.829,0,0,1,.713-1.263,3.361,3.361,0,0,1,2.625-1.178,3.565,3.565,0,0,1,1.475.289,3.1,3.1,0,0,1,1.079.792A3.429,3.429,0,0,1,124.7,22.4a4.62,4.62,0,0,1,.226,1.468m-1.75.266a5.541,5.541,0,0,0-.127-1.249,3.331,3.331,0,0,0-.358-.952,1.811,1.811,0,0,0-.566-.607,1.349,1.349,0,0,0-.741-.212,1.467,1.467,0,0,0-.84.226,1.7,1.7,0,0,0-.536.6,2.634,2.634,0,0,0-.282.873,6.957,6.957,0,0,0-.078,1.053,4.309,4.309,0,0,0,.48,2.2,1.44,1.44,0,0,0,1.27.8,1.566,1.566,0,0,0,.847-.212,1.541,1.541,0,0,0,.543-.586,2.946,2.946,0,0,0,.3-.877,6.007,6.007,0,0,0,.092-1.065" transform="translate(874.18 98.387)" fill="#161615"/>
      <path id="Trazado_9283" data-name="Trazado 9283" d="M130.813,27.413a.175.175,0,0,1-.2.2h-3.328a.175.175,0,0,1-.2-.2v-.266a.2.2,0,0,1,.183-.212l.637-.129a.3.3,0,0,0,.168-.127.521.521,0,0,0,.071-.31v-3.4a1.6,1.6,0,0,0-.409-1.191,1.474,1.474,0,0,0-1.085-.4,1.722,1.722,0,0,0-1.117.367,1.2,1.2,0,0,0-.45.974v3.655a.535.535,0,0,0,.071.31.3.3,0,0,0,.168.127l.635.129a.205.205,0,0,1,.185.212v.266a.176.176,0,0,1-.2.2h-3.328a.175.175,0,0,1-.2-.2v-.266a.2.2,0,0,1,.183-.212l.635-.129a.307.307,0,0,0,.169-.127.549.549,0,0,0,.071-.31V21.784a.786.786,0,0,0-.064-.3.289.289,0,0,0-.231-.178l-.693-.111a.207.207,0,0,1-.183-.212v-.27a.2.2,0,0,1,.2-.212l2.088-.252q.212-.016.238.212l.086.774h.055a3.975,3.975,0,0,1,1.081-.762,3.129,3.129,0,0,1,1.376-.3,2.78,2.78,0,0,1,.891.143,2.167,2.167,0,0,1,.741.415,2.049,2.049,0,0,1,.508.686,2.239,2.239,0,0,1,.187.945v4.006a.549.549,0,0,0,.071.31.307.307,0,0,0,.169.127l.637.129a.2.2,0,0,1,.185.212Z" transform="translate(877.547 98.41)" fill="#161615"/>
      <path id="Trazado_9281" data-name="Trazado 9281" d="M132.644,25.3a2.166,2.166,0,0,1-.256,1.067,2.389,2.389,0,0,1-.669.773,3.144,3.144,0,0,1-.94.474,3.554,3.554,0,0,1-1.057.161c-.18,0-.36-.007-.545-.019s-.356-.037-.522-.065-.314-.056-.452-.083-.245-.058-.33-.085a.372.372,0,0,1-.148-.093.211.211,0,0,1-.063-.162V25.724a.173.173,0,0,1,.2-.2h.4q.167,0,.212.2l.125.494a.634.634,0,0,0,.376.425,1.893,1.893,0,0,0,.781.141,1.6,1.6,0,0,0,.94-.282.9.9,0,0,0,.4-.778.86.86,0,0,0-.288-.684,2.736,2.736,0,0,0-.743-.43l-.859-.353a3.336,3.336,0,0,1-1.067-.69,1.615,1.615,0,0,1-.43-1.2,1.855,1.855,0,0,1,.242-.96,2.24,2.24,0,0,1,.619-.686,2.833,2.833,0,0,1,.87-.415,3.4,3.4,0,0,1,.967-.141,5.73,5.73,0,0,1,.945.069,3.655,3.655,0,0,1,.69.168.254.254,0,0,1,.2.249v1.39a.188.188,0,0,1-.213.212H131.7c-.1,0-.175-.065-.212-.2l-.115-.437c-.085-.337-.413-.508-.986-.508a1.565,1.565,0,0,0-.792.213.69.69,0,0,0-.367.635.7.7,0,0,0,.277.6,3.188,3.188,0,0,0,.683.376l.818.339a3.992,3.992,0,0,1,.616.3,2.663,2.663,0,0,1,.522.418,1.811,1.811,0,0,1,.367.557,1.9,1.9,0,0,1,.134.743" transform="translate(881.643 98.404)" fill="#161615"/>
      <path id="Trazado_9278" data-name="Trazado 9278" d="M137.192,22.3a1.74,1.74,0,0,1-.3,1.023,2.364,2.364,0,0,1-.767.707,3.667,3.667,0,0,1-1.067.4,5.572,5.572,0,0,1-1.2.129H133.4a2.881,2.881,0,0,1-.422-.028c-.115-.019-.166.034-.155.155a1.776,1.776,0,0,0,.233.8,2.141,2.141,0,0,0,.508.6,2.226,2.226,0,0,0,.69.381,2.456,2.456,0,0,0,.8.134,2.872,2.872,0,0,0,.924-.141,4.313,4.313,0,0,0,.656-.27.183.183,0,0,1,.19,0,.292.292,0,0,1,.106.141l.157.679a.241.241,0,0,1-.115.28,4.292,4.292,0,0,1-.979.383,4.473,4.473,0,0,1-1.178.155,4.291,4.291,0,0,1-1.623-.282,3.074,3.074,0,0,1-1.152-.8,3.422,3.422,0,0,1-.69-1.222,4.866,4.866,0,0,1-.235-1.552,4.18,4.18,0,0,1,.3-1.6,3.794,3.794,0,0,1,.79-1.212,3.354,3.354,0,0,1,1.138-.762,3.522,3.522,0,0,1,1.333-.261,3.138,3.138,0,0,1,.967.148,2.433,2.433,0,0,1,.8.43,2.1,2.1,0,0,1,.549.684,1.951,1.951,0,0,1,.2.894m-1.595-.048a1.159,1.159,0,0,0-1.155-1.164,1.334,1.334,0,0,0-.792.231,1.868,1.868,0,0,0-.527.575,2.411,2.411,0,0,0-.289.751,3.614,3.614,0,0,0-.085.757.311.311,0,0,0,.019.141.236.236,0,0,0,.136.042c.1.009.212.016.323.021s.231.005.353.005a3.814,3.814,0,0,0,.734-.069,2.231,2.231,0,0,0,.651-.226,1.258,1.258,0,0,0,.457-.42,1.133,1.133,0,0,0,.176-.646" transform="translate(884.275 98.387)" fill="#161615"/>
      <path id="Trazado_9279" data-name="Trazado 9279" d="M138.725,28.515a3.487,3.487,0,0,1-.783,2.394,2.891,2.891,0,0,1-2.279.882,2.071,2.071,0,0,1-.863-.157.223.223,0,0,1-.111-.1.15.15,0,0,1-.014-.141l.183-.663c.048-.178.136-.235.268-.169a1.608,1.608,0,0,0,.619.113,1.3,1.3,0,0,0,.658-.148,1.215,1.215,0,0,0,.423-.4,1.759,1.759,0,0,0,.233-.612,4.188,4.188,0,0,0,.071-.785V23.1a.719.719,0,0,0-.058-.289.23.23,0,0,0-.238-.132h-1.326a.18.18,0,0,1-.148-.064.156.156,0,0,1-.035-.134l.055-.536c.019-.132.085-.2.2-.212l2.907-.212a.207.207,0,0,1,.162.041.172.172,0,0,1,.078.141Zm.141-9.087a.894.894,0,0,1-.275.7,1.1,1.1,0,0,1-.755.247.916.916,0,0,1-.764-.289.995.995,0,0,1-.168-.967.873.873,0,0,1,.175-.3.96.96,0,0,1,.312-.219,1.156,1.156,0,0,1,.473-.085,1,1,0,0,1,.753.254.912.912,0,0,1,.249.663" transform="translate(886.99 97.139)" fill="#161615"/>
      <path id="Trazado_9275" data-name="Trazado 9275" d="M144.056,22.3a1.74,1.74,0,0,1-.3,1.023,2.365,2.365,0,0,1-.767.707,3.668,3.668,0,0,1-1.067.4,5.572,5.572,0,0,1-1.2.129h-.467a2.881,2.881,0,0,1-.422-.028c-.115-.019-.166.034-.155.155a1.776,1.776,0,0,0,.233.8,2.142,2.142,0,0,0,.508.6,2.226,2.226,0,0,0,.69.381,2.456,2.456,0,0,0,.8.134,2.872,2.872,0,0,0,.924-.141,4.312,4.312,0,0,0,.656-.27.183.183,0,0,1,.19,0,.292.292,0,0,1,.106.141l.157.679a.241.241,0,0,1-.115.28,4.292,4.292,0,0,1-.979.383,4.474,4.474,0,0,1-1.178.155,4.291,4.291,0,0,1-1.623-.282,3.074,3.074,0,0,1-1.152-.8,3.422,3.422,0,0,1-.69-1.222,4.867,4.867,0,0,1-.235-1.552,4.18,4.18,0,0,1,.3-1.6,3.8,3.8,0,0,1,.79-1.212A3.354,3.354,0,0,1,140.2,20.4a3.522,3.522,0,0,1,1.333-.261,3.138,3.138,0,0,1,.967.148,2.433,2.433,0,0,1,.8.43,2.1,2.1,0,0,1,.549.684,1.951,1.951,0,0,1,.2.894m-1.595-.048a1.159,1.159,0,0,0-1.155-1.164,1.334,1.334,0,0,0-.792.231,1.867,1.867,0,0,0-.527.575,2.409,2.409,0,0,0-.289.751,3.612,3.612,0,0,0-.085.757.311.311,0,0,0,.019.141.236.236,0,0,0,.136.042c.1.009.212.016.323.021s.231.005.353.005a3.813,3.813,0,0,0,.734-.069,2.231,2.231,0,0,0,.651-.226,1.258,1.258,0,0,0,.457-.42,1.133,1.133,0,0,0,.176-.646" transform="translate(889.519 98.387)" fill="#161615"/>
      <path id="Trazado_9273" data-name="Trazado 9273" d="M147.3,21.712a.3.3,0,0,1-.1.125.175.175,0,0,1-.183.016,2.492,2.492,0,0,0-.43-.12,2.429,2.429,0,0,0-.487-.051,1.568,1.568,0,0,0-.48.078,1.352,1.352,0,0,0-.423.226,1.117,1.117,0,0,0-.3.376,1.13,1.13,0,0,0-.113.506v3.5a.566.566,0,0,0,.071.316.25.25,0,0,0,.169.122l.847.127a.177.177,0,0,1,.148.078.272.272,0,0,1,.035.134v.266a.175.175,0,0,1-.2.2h-3.542a.175.175,0,0,1-.2-.2v-.266a.2.2,0,0,1,.183-.212l.635-.127a.3.3,0,0,0,.169-.129.542.542,0,0,0,.071-.309V21.8a.761.761,0,0,0-.063-.3.287.287,0,0,0-.233-.178l-.706-.111a.206.206,0,0,1-.183-.212V20.71a.2.2,0,0,1,.2-.212l2.074-.254c.15-.011.235.076.254.254.011.15.025.293.042.423.019.113.034.219.042.316s.014.164.014.192h.056a5.332,5.332,0,0,1,.917-.9,1.861,1.861,0,0,1,1.157-.36,2.353,2.353,0,0,1,.367.028,1.236,1.236,0,0,1,.339.1c.1.037.127.131.1.28Z" transform="translate(892.593 98.41)" fill="#161615"/>
      <path id="Trazado_9272" data-name="Trazado 9272" d="M149.408,28.712a.226.226,0,0,1-.125.24,3.418,3.418,0,0,1-.515.161,2.657,2.657,0,0,1-.644.078,1.666,1.666,0,0,1-1.312-.452,1.843,1.843,0,0,1-.393-1.254V23.2a.763.763,0,0,0-.065-.3.287.287,0,0,0-.231-.178l-.58-.111c-.122-.03-.183-.1-.183-.2v-.282a.2.2,0,0,1,.2-.213l2.23-.252a.22.22,0,0,1,.164.041.179.179,0,0,1,.078.141v5.477a.906.906,0,0,0,.148.563.545.545,0,0,0,.471.2.932.932,0,0,0,.247-.028c.071-.019.145-.044.219-.071a.161.161,0,0,1,.141.007c.056.023.09.086.1.189Zm-.014-9.638a.481.481,0,0,1-.106.3,1.747,1.747,0,0,1-.219.233l-2.088,1.635a.135.135,0,0,1-.169,0l-.339-.353a.1.1,0,0,1-.028-.078.105.105,0,0,1,.028-.078l1.58-2.1a.949.949,0,0,1,.24-.219.558.558,0,0,1,.31-.093.615.615,0,0,1,.268.071,1.163,1.163,0,0,1,.263.185,1.056,1.056,0,0,1,.189.238.514.514,0,0,1,.071.256" transform="translate(895.159 96.998)" fill="#161615"/>
      <path id="Trazado_9270" data-name="Trazado 9270" d="M154.728,27.32c.009.132-.035.212-.129.238a3.616,3.616,0,0,1-.55.141,3.4,3.4,0,0,1-.677.071.978.978,0,0,1-.8-.3,1.175,1.175,0,0,1-.273-.69h-.058a4.1,4.1,0,0,1-.894.7,2.556,2.556,0,0,1-1.293.289,2.157,2.157,0,0,1-.826-.153,1.951,1.951,0,0,1-.635-.418,1.816,1.816,0,0,1-.407-.626,2.059,2.059,0,0,1-.148-.79,2.248,2.248,0,0,1,.309-1.206,2.545,2.545,0,0,1,.84-.827,3.854,3.854,0,0,1,1.256-.471,7.734,7.734,0,0,1,1.545-.148.11.11,0,0,0,.113-.071.341.341,0,0,0,.028-.129v-.323a1.117,1.117,0,0,0-.452-.99,1.9,1.9,0,0,0-1.1-.31,2.983,2.983,0,0,0-.859.122,3.21,3.21,0,0,0-.707.289c-.159.093-.263.051-.309-.127l-.155-.721c-.039-.15,0-.243.125-.282a5.326,5.326,0,0,1,1.072-.31A6.974,6.974,0,0,1,151,20.166a2.854,2.854,0,0,1,2,.626,2.612,2.612,0,0,1,.677,2V26.22c0,.291.132.437.4.437a.646.646,0,0,0,.183-.021c.048-.016.1-.032.171-.049.131-.039.206.018.226.168Zm-2.6-3.119c0-.086-.046-.127-.139-.127a4.73,4.73,0,0,0-1.1.111,2.1,2.1,0,0,0-.729.312,1.212,1.212,0,0,0-.4.459,1.252,1.252,0,0,0-.127.556,1.019,1.019,0,0,0,.337.8,1.22,1.22,0,0,0,.857.3,1.378,1.378,0,0,0,.561-.1,1.311,1.311,0,0,0,.407-.277,1.074,1.074,0,0,0,.25-.386,1.191,1.191,0,0,0,.085-.432Z" transform="translate(897.207 98.404)" fill="#161615"/>
      <path id="Trazado_9264" data-name="Trazado 9264" d="M161.825,28.6a.2.2,0,0,1-.2.21l-2.073.256a.208.208,0,0,1-.24-.212L159.23,28h-.058a5.514,5.514,0,0,1-.972.748,2.422,2.422,0,0,1-1.272.325,2.281,2.281,0,0,1-1.136-.284,2.806,2.806,0,0,1-.854-.746,3.518,3.518,0,0,1-.543-1.081,4.369,4.369,0,0,1-.19-1.289,4.91,4.91,0,0,1,.263-1.646,3.56,3.56,0,0,1,.767-1.275,3.462,3.462,0,0,1,1.236-.833,4.35,4.35,0,0,1,1.658-.3,4.715,4.715,0,0,1,.508.028,2.75,2.75,0,0,1,.423.071V20a.825.825,0,0,0-.062-.3.3.3,0,0,0-.236-.178l-.577-.111c-.122-.03-.185-.1-.185-.2v-.282a.2.2,0,0,1,.2-.213l2.217-.252a.206.206,0,0,1,.159.041.163.163,0,0,1,.078.141v8.863a.821.821,0,0,0,.064.31.3.3,0,0,0,.233.183l.695.113a.2.2,0,0,1,.18.2Zm-2.764-5a.791.791,0,0,0-.346-.727,1.588,1.588,0,0,0-.868-.219,1.73,1.73,0,0,0-.9.219,1.84,1.84,0,0,0-.616.579,2.439,2.439,0,0,0-.344.825,4.37,4.37,0,0,0-.106.974,4.224,4.224,0,0,0,.1.908,2.825,2.825,0,0,0,.312.827,1.823,1.823,0,0,0,.54.6,1.382,1.382,0,0,0,.813.233,1.556,1.556,0,0,0,1-.332,1.1,1.1,0,0,0,.407-.9Z" transform="translate(901.917 97.102)" fill="#161615"/>
      <path id="Trazado_9265" data-name="Trazado 9265" d="M164.967,22.3a1.74,1.74,0,0,1-.3,1.023,2.364,2.364,0,0,1-.767.707,3.667,3.667,0,0,1-1.067.4,5.572,5.572,0,0,1-1.2.129h-.467a2.882,2.882,0,0,1-.422-.028c-.115-.019-.166.034-.155.155a1.776,1.776,0,0,0,.233.8,2.142,2.142,0,0,0,.508.6,2.226,2.226,0,0,0,.69.381,2.456,2.456,0,0,0,.8.134,2.872,2.872,0,0,0,.924-.141,4.313,4.313,0,0,0,.656-.27.183.183,0,0,1,.191,0,.292.292,0,0,1,.106.141l.157.679a.241.241,0,0,1-.115.28,4.292,4.292,0,0,1-.979.383,4.473,4.473,0,0,1-1.178.155,4.291,4.291,0,0,1-1.623-.282,3.074,3.074,0,0,1-1.152-.8,3.422,3.422,0,0,1-.69-1.222,4.866,4.866,0,0,1-.235-1.552,4.179,4.179,0,0,1,.3-1.6,3.794,3.794,0,0,1,.79-1.212,3.354,3.354,0,0,1,1.138-.762,3.521,3.521,0,0,1,1.333-.261,3.138,3.138,0,0,1,.967.148,2.434,2.434,0,0,1,.8.43,2.1,2.1,0,0,1,.549.684,1.951,1.951,0,0,1,.2.894m-1.595-.048a1.159,1.159,0,0,0-1.155-1.164,1.334,1.334,0,0,0-.792.231,1.867,1.867,0,0,0-.527.575,2.411,2.411,0,0,0-.289.751,3.612,3.612,0,0,0-.085.757.311.311,0,0,0,.019.141.236.236,0,0,0,.136.042c.1.009.212.016.323.021s.231.005.353.005a3.814,3.814,0,0,0,.734-.069,2.231,2.231,0,0,0,.651-.226,1.258,1.258,0,0,0,.457-.42,1.133,1.133,0,0,0,.176-.646" transform="translate(905.492 98.387)" fill="#161615"/>
      <path id="Trazado_9260" data-name="Trazado 9260" d="M172.27,28.262a.559.559,0,0,1-.055.176.131.131,0,0,1-.115.078h-6.844a.188.188,0,0,1-.212-.213v-.3a.221.221,0,0,1,.2-.238l.746-.141a.307.307,0,0,0,.185-.136.656.656,0,0,0,.069-.346V20.36a.663.663,0,0,0-.069-.347.319.319,0,0,0-.185-.134l-.746-.155a.221.221,0,0,1-.2-.24V19.2a.187.187,0,0,1,.212-.212H171.9a.144.144,0,0,1,.12.071.3.3,0,0,1,.051.171v1.764a.175.175,0,0,1-.2.2H171.5c-.115,0-.185-.063-.213-.194l-.127-.559a.446.446,0,0,0-.492-.362H168.22a.151.151,0,0,0-.169.169v2.5a.15.15,0,0,0,.169.169h3.217a.174.174,0,0,1,.2.2v.72a.176.176,0,0,1-.2.2H168.22a.15.15,0,0,0-.169.168v2.738a.47.47,0,0,0,.136.4.541.541,0,0,0,.33.1h2.4a.621.621,0,0,0,.348-.1.452.452,0,0,0,.189-.3l.127-.552a.2.2,0,0,1,.213-.182h.393c.152,0,.217.065.2.2Z" transform="translate(910.198 97.506)" fill="#161615"/>
      <path id="Trazado_9261" data-name="Trazado 9261" d="M177.609,28.6a.2.2,0,0,1-.2.21l-2.074.256a.206.206,0,0,1-.238-.212L175.014,28h-.058a5.578,5.578,0,0,1-.972.748,2.426,2.426,0,0,1-1.272.325,2.276,2.276,0,0,1-1.136-.284,2.785,2.785,0,0,1-.854-.746,3.517,3.517,0,0,1-.543-1.081,4.311,4.311,0,0,1-.191-1.289,4.956,4.956,0,0,1,.261-1.646,3.589,3.589,0,0,1,.769-1.275,3.471,3.471,0,0,1,1.235-.833,4.366,4.366,0,0,1,1.66-.3,4.74,4.74,0,0,1,.508.028,2.684,2.684,0,0,1,.422.071V20a.79.79,0,0,0-.062-.3.292.292,0,0,0-.235-.178l-.579-.111c-.122-.03-.183-.1-.183-.2v-.282a.2.2,0,0,1,.2-.213l2.215-.252a.208.208,0,0,1,.161.041.168.168,0,0,1,.078.141v8.863a.821.821,0,0,0,.063.31.3.3,0,0,0,.233.183l.693.113c.12.026.182.093.182.2Zm-2.766-5a.793.793,0,0,0-.344-.727,1.592,1.592,0,0,0-.868-.219,1.73,1.73,0,0,0-.9.219,1.823,1.823,0,0,0-.616.579,2.439,2.439,0,0,0-.344.825,4.371,4.371,0,0,0-.108.974,4.229,4.229,0,0,0,.1.908,2.823,2.823,0,0,0,.31.827,1.848,1.848,0,0,0,.542.6,1.376,1.376,0,0,0,.811.233,1.549,1.549,0,0,0,1-.332,1.1,1.1,0,0,0,.407-.9Z" transform="translate(913.974 97.102)" fill="#161615"/>
      <path id="Trazado_9250" data-name="Trazado 9250" d="M182.781,27.285c.011.132-.034.212-.125.24a4.2,4.2,0,0,1-.545.141,3.438,3.438,0,0,1-.67.071,1.222,1.222,0,0,1-.838-.268,1.017,1.017,0,0,1-.319-.776h-.041a4.01,4.01,0,0,1-1.044.748,2.937,2.937,0,0,1-1.326.3,2.63,2.63,0,0,1-.861-.141,2.109,2.109,0,0,1-.728-.423,2.046,2.046,0,0,1-.5-.691,2.3,2.3,0,0,1-.182-.945V21.753a.8.8,0,0,0-.064-.3.294.294,0,0,0-.233-.176l-.579-.1a.206.206,0,0,1-.185-.212v-.282a.2.2,0,0,1,.2-.212l2.215-.254a.2.2,0,0,1,.162.042.17.17,0,0,1,.078.141v4.53a1.61,1.61,0,0,0,.4,1.192,1.416,1.416,0,0,0,1.049.4,1.617,1.617,0,0,0,1.074-.367,1.208,1.208,0,0,0,.437-.974V21.753a.8.8,0,0,0-.064-.3.294.294,0,0,0-.233-.176l-.579-.1a.206.206,0,0,1-.185-.212v-.282a.2.2,0,0,1,.2-.212l2.23-.254a.212.212,0,0,1,.164.042.174.174,0,0,1,.078.141V26.17a.527.527,0,0,0,.092.325.314.314,0,0,0,.275.127.723.723,0,0,0,.189-.021l.178-.049c.12-.028.191.028.21.169Z" transform="translate(917.451 98.439)" fill="#161615"/>
      <path id="Trazado_9251" data-name="Trazado 9251" d="M185.379,27a.241.241,0,0,1-.1.28,4.107,4.107,0,0,1-.852.353,4,4,0,0,1-1.235.185,3.718,3.718,0,0,1-1.5-.289,3.319,3.319,0,0,1-1.122-.79,3.415,3.415,0,0,1-.7-1.192,4.527,4.527,0,0,1-.242-1.5,4.082,4.082,0,0,1,.3-1.572,3.79,3.79,0,0,1,.811-1.229,3.7,3.7,0,0,1,1.2-.8,3.77,3.77,0,0,1,1.445-.28,6.068,6.068,0,0,1,1.009.071,2.559,2.559,0,0,1,.573.141.328.328,0,0,1,.127.1.249.249,0,0,1,.055.155v1.693a.174.174,0,0,1-.2.2h-.423a.205.205,0,0,1-.213-.185l-.127-.593q-.127-.521-.915-.52a1.738,1.738,0,0,0-.826.19,1.612,1.612,0,0,0-.593.529,2.462,2.462,0,0,0-.353.8,4.01,4.01,0,0,0-.122,1.016,4.7,4.7,0,0,0,.115,1.03,2.811,2.811,0,0,0,.367.91,1.9,1.9,0,0,0,.663.642,1.94,1.94,0,0,0,1,.24,2.337,2.337,0,0,0,.771-.136,4.314,4.314,0,0,0,.6-.245.207.207,0,0,1,.19-.021.193.193,0,0,1,.118.148Z" transform="translate(921.343 98.404)" fill="#161615"/>
      <path id="Trazado_9252" data-name="Trazado 9252" d="M190.3,27.32c.009.132-.035.212-.129.238a3.618,3.618,0,0,1-.55.141,3.4,3.4,0,0,1-.677.071.978.978,0,0,1-.8-.3,1.175,1.175,0,0,1-.273-.69h-.058a4.1,4.1,0,0,1-.894.7,2.556,2.556,0,0,1-1.293.289,2.157,2.157,0,0,1-.826-.153,1.951,1.951,0,0,1-.635-.418,1.816,1.816,0,0,1-.407-.626,2.058,2.058,0,0,1-.148-.79,2.248,2.248,0,0,1,.309-1.206,2.545,2.545,0,0,1,.84-.827,3.854,3.854,0,0,1,1.256-.471,7.734,7.734,0,0,1,1.545-.148.11.11,0,0,0,.113-.071.341.341,0,0,0,.028-.129v-.323a1.117,1.117,0,0,0-.452-.99,1.9,1.9,0,0,0-1.1-.31,2.983,2.983,0,0,0-.859.122,3.209,3.209,0,0,0-.707.289c-.159.093-.263.051-.309-.127l-.155-.721c-.039-.15,0-.243.125-.282a5.327,5.327,0,0,1,1.072-.31,6.973,6.973,0,0,1,1.256-.111,2.854,2.854,0,0,1,2,.626,2.612,2.612,0,0,1,.677,2V26.22c0,.291.132.437.4.437a.646.646,0,0,0,.183-.021c.048-.016.1-.032.171-.049.131-.039.206.018.226.168ZM187.7,24.2c0-.086-.046-.127-.139-.127a4.73,4.73,0,0,0-1.1.111,2.1,2.1,0,0,0-.728.312,1.213,1.213,0,0,0-.4.459,1.252,1.252,0,0,0-.127.556,1.019,1.019,0,0,0,.337.8,1.22,1.22,0,0,0,.857.3,1.378,1.378,0,0,0,.561-.1,1.311,1.311,0,0,0,.407-.277,1.074,1.074,0,0,0,.25-.386,1.191,1.191,0,0,0,.085-.432Z" transform="translate(924.381 98.404)" fill="#161615"/>
      <path id="Trazado_9253" data-name="Trazado 9253" d="M193.483,27a.241.241,0,0,1-.1.28,4.107,4.107,0,0,1-.852.353,4,4,0,0,1-1.235.185,3.718,3.718,0,0,1-1.5-.289,3.319,3.319,0,0,1-1.122-.79,3.415,3.415,0,0,1-.7-1.192,4.526,4.526,0,0,1-.242-1.5,4.083,4.083,0,0,1,.3-1.572,3.791,3.791,0,0,1,.811-1.229,3.7,3.7,0,0,1,1.2-.8,3.771,3.771,0,0,1,1.445-.28,6.068,6.068,0,0,1,1.009.071,2.56,2.56,0,0,1,.573.141.328.328,0,0,1,.127.1.249.249,0,0,1,.055.155v1.693a.174.174,0,0,1-.2.2h-.423a.205.205,0,0,1-.213-.185l-.127-.593q-.127-.521-.915-.52a1.738,1.738,0,0,0-.825.19,1.612,1.612,0,0,0-.593.529,2.463,2.463,0,0,0-.353.8,4.012,4.012,0,0,0-.122,1.016,4.7,4.7,0,0,0,.115,1.03,2.812,2.812,0,0,0,.367.91,1.9,1.9,0,0,0,.663.642,1.94,1.94,0,0,0,1,.24,2.337,2.337,0,0,0,.771-.136,4.313,4.313,0,0,0,.6-.245.207.207,0,0,1,.19-.021.193.193,0,0,1,.118.148Z" transform="translate(927.534 98.404)" fill="#161615"/>
      <path id="Trazado_9254" data-name="Trazado 9254" d="M195.54,28.573a.216.216,0,0,1-.125.238,3.151,3.151,0,0,1-.515.162,2.7,2.7,0,0,1-.64.078,1.672,1.672,0,0,1-1.316-.452,1.857,1.857,0,0,1-.393-1.256V23.056a.818.818,0,0,0-.062-.3.3.3,0,0,0-.235-.178l-.579-.111c-.122-.03-.183-.1-.183-.2v-.282a.2.2,0,0,1,.2-.212l2.228-.252a.211.211,0,0,1,.164.041.178.178,0,0,1,.079.141v5.477a.9.9,0,0,0,.148.563.543.543,0,0,0,.469.2,1.008,1.008,0,0,0,.247-.026c.071-.019.145-.044.219-.071a.166.166,0,0,1,.141.005c.056.025.092.086.1.19Zm-1.169-9.146a.888.888,0,0,1-.275.7,1.1,1.1,0,0,1-.757.247.913.913,0,0,1-.762-.289,1,1,0,0,1-.168-.967.874.874,0,0,1,.175-.3.992.992,0,0,1,.31-.219,1.174,1.174,0,0,1,.476-.085,1,1,0,0,1,.751.254.912.912,0,0,1,.249.663" transform="translate(930.4 97.139)" fill="#161615"/>
      <path id="Trazado_9237" data-name="Trazado 9237" d="M201.143,25.261a4.761,4.761,0,0,1-.247,1.531,3.888,3.888,0,0,1-.713,1.275,3.379,3.379,0,0,1-1.129.87,3.426,3.426,0,0,1-1.5.316,3.57,3.57,0,0,1-1.489-.289,2.969,2.969,0,0,1-1.072-.8,3.554,3.554,0,0,1-.656-1.192,4.876,4.876,0,0,1,.021-3,3.828,3.828,0,0,1,.713-1.263,3.361,3.361,0,0,1,2.625-1.178,3.565,3.565,0,0,1,1.475.289,3.1,3.1,0,0,1,1.079.792,3.429,3.429,0,0,1,.663,1.178,4.628,4.628,0,0,1,.226,1.468m-1.75.266a5.642,5.642,0,0,0-.127-1.249,3.331,3.331,0,0,0-.36-.952,1.79,1.79,0,0,0-.564-.607,1.35,1.35,0,0,0-.741-.212,1.467,1.467,0,0,0-.84.226,1.681,1.681,0,0,0-.536.609,2.7,2.7,0,0,0-.282.875,6.574,6.574,0,0,0-.078,1.044,4.309,4.309,0,0,0,.48,2.2,1.44,1.44,0,0,0,1.27.8,1.467,1.467,0,0,0,1.39-.8,2.951,2.951,0,0,0,.3-.875,6.042,6.042,0,0,0,.092-1.067m.649-6.463a.493.493,0,0,1-.106.305,1.749,1.749,0,0,1-.219.233l-2.088,1.635a.141.141,0,0,1-.169,0l-.339-.353a.1.1,0,0,1-.028-.078.105.105,0,0,1,.028-.078l1.58-2.1a.915.915,0,0,1,.24-.217.558.558,0,0,1,.31-.093.62.62,0,0,1,.268.071,1.153,1.153,0,0,1,.261.185,1.018,1.018,0,0,1,.19.238.532.532,0,0,1,.071.254" transform="translate(932.404 96.992)" fill="#161615"/>
      <path id="Trazado_9238" data-name="Trazado 9238" d="M207.033,27.413a.175.175,0,0,1-.2.2h-3.33a.174.174,0,0,1-.2-.2v-.266a.2.2,0,0,1,.182-.212l.637-.129a.3.3,0,0,0,.168-.127.521.521,0,0,0,.071-.31v-3.4a1.6,1.6,0,0,0-.407-1.191,1.478,1.478,0,0,0-1.087-.4,1.717,1.717,0,0,0-1.115.367,1.192,1.192,0,0,0-.452.974v3.655a.535.535,0,0,0,.071.31.3.3,0,0,0,.169.127l.635.129a.2.2,0,0,1,.183.212v.266a.175.175,0,0,1-.2.2h-3.328a.175.175,0,0,1-.2-.2v-.266a.2.2,0,0,1,.185-.212l.635-.129a.313.313,0,0,0,.169-.127.549.549,0,0,0,.071-.31V21.784a.786.786,0,0,0-.064-.3.292.292,0,0,0-.233-.178l-.693-.111a.206.206,0,0,1-.182-.212v-.27a.2.2,0,0,1,.2-.212l2.088-.252q.212-.016.238.212l.085.774h.056a3.948,3.948,0,0,1,1.081-.762,3.118,3.118,0,0,1,1.376-.3,2.761,2.761,0,0,1,.889.143,2.135,2.135,0,0,1,.741.415,2,2,0,0,1,.508.686,2.239,2.239,0,0,1,.189.945v4.006a.549.549,0,0,0,.071.31.307.307,0,0,0,.169.127l.637.129a.2.2,0,0,1,.183.212Z" transform="translate(935.771 98.41)" fill="#161615"/>
      <path id="Trazado_9239" data-name="Trazado 9239" d="M206.325,24.83a3.372,3.372,0,0,1-.132.93,3.858,3.858,0,0,1-.374.875,4.087,4.087,0,0,1-.572.755,3.626,3.626,0,0,1-.727.586.326.326,0,0,1-.178.063.219.219,0,0,1-.118-.09l-.354-.411a.132.132,0,0,1-.034-.132.191.191,0,0,1,.092-.108,2.626,2.626,0,0,0,.464-.386,3.136,3.136,0,0,0,.4-.522,2.985,2.985,0,0,0,.28-.616,1.882,1.882,0,0,0,.094-.663,1.122,1.122,0,0,1-.827-.245.958.958,0,0,1-.317-.755,1.066,1.066,0,0,1,.063-.353.993.993,0,0,1,.2-.333,1.067,1.067,0,0,1,.33-.24,1.193,1.193,0,0,1,1.03.058,1.135,1.135,0,0,1,.388.393,1.823,1.823,0,0,1,.219.559,2.814,2.814,0,0,1,.071.635" transform="translate(939.824 100.641)" fill="#161615"/>
      <path id="Trazado_9287" data-name="Trazado 9287" d="M122.436,27.484a.223.223,0,0,1-.2.24l-.75.155a.313.313,0,0,0-.183.134.637.637,0,0,0-.071.346v4.53a4.007,4.007,0,0,1-.938,2.859,3.533,3.533,0,0,1-2.7.993,3.453,3.453,0,0,1-2.646-.96,3.73,3.73,0,0,1-.9-2.653v-4.77a.653.653,0,0,0-.071-.346.308.308,0,0,0-.183-.134l-.746-.155a.223.223,0,0,1-.2-.24V27.2a.187.187,0,0,1,.212-.212h3.782a.187.187,0,0,1,.212.212v.282a.223.223,0,0,1-.2.24l-.748.155a.308.308,0,0,0-.183.134.637.637,0,0,0-.071.346v4.755a4.257,4.257,0,0,0,.106.974,2.369,2.369,0,0,0,.333.79,1.553,1.553,0,0,0,.586.529,2.079,2.079,0,0,0,1.776-.014,1.618,1.618,0,0,0,.579-.55,2.356,2.356,0,0,0,.31-.818A5.476,5.476,0,0,0,119.642,33V28.359a.653.653,0,0,0-.071-.346.308.308,0,0,0-.183-.134l-.734-.155a.223.223,0,0,1-.2-.24V27.2a.187.187,0,0,1,.212-.212h3.556a.187.187,0,0,1,.212.212Z" transform="translate(870.331 103.617)" fill="#161615"/>
      <path id="Trazado_9285" data-name="Trazado 9285" d="M127.116,35.413a.175.175,0,0,1-.2.2h-3.33a.174.174,0,0,1-.2-.2v-.266a.2.2,0,0,1,.182-.212l.637-.129a.3.3,0,0,0,.168-.127.521.521,0,0,0,.071-.31v-3.4a1.6,1.6,0,0,0-.407-1.191,1.478,1.478,0,0,0-1.087-.4,1.717,1.717,0,0,0-1.115.367,1.192,1.192,0,0,0-.452.974v3.655a.535.535,0,0,0,.071.31.3.3,0,0,0,.169.127l.635.129a.2.2,0,0,1,.183.212v.266a.175.175,0,0,1-.2.2h-3.328a.175.175,0,0,1-.2-.2v-.266a.2.2,0,0,1,.185-.212l.635-.129a.313.313,0,0,0,.169-.127.549.549,0,0,0,.071-.31V29.784a.786.786,0,0,0-.064-.3.292.292,0,0,0-.233-.178l-.693-.111a.206.206,0,0,1-.182-.212v-.27a.2.2,0,0,1,.2-.212l2.088-.252q.212-.016.238.212l.085.774h.056a3.949,3.949,0,0,1,1.081-.762,3.118,3.118,0,0,1,1.376-.3,2.761,2.761,0,0,1,.889.143,2.135,2.135,0,0,1,.741.415,2,2,0,0,1,.508.686,2.239,2.239,0,0,1,.189.945v4.006a.549.549,0,0,0,.071.31.307.307,0,0,0,.169.127l.637.129a.2.2,0,0,1,.183.212Z" transform="translate(874.725 104.521)" fill="#161615"/>
      <path id="Trazado_9284" data-name="Trazado 9284" d="M127.7,36.573a.22.22,0,0,1-.125.238,3.151,3.151,0,0,1-.515.162,2.721,2.721,0,0,1-.642.078,1.668,1.668,0,0,1-1.314-.452,1.848,1.848,0,0,1-.393-1.256V31.056a.786.786,0,0,0-.063-.3.292.292,0,0,0-.233-.178l-.579-.111c-.123-.03-.185-.1-.185-.2v-.282a.2.2,0,0,1,.2-.212l2.23-.252a.211.211,0,0,1,.164.041.176.176,0,0,1,.078.141v5.477a.91.91,0,0,0,.148.563.547.547,0,0,0,.471.2,1.018,1.018,0,0,0,.247-.026c.071-.019.145-.044.219-.071a.166.166,0,0,1,.141.005c.056.025.09.086.1.19Zm-1.171-9.146a.893.893,0,0,1-.273.7,1.1,1.1,0,0,1-.757.247.912.912,0,0,1-.762-.289.995.995,0,0,1-.168-.967.873.873,0,0,1,.175-.3.971.971,0,0,1,.31-.219,1.171,1.171,0,0,1,.474-.085,1.007,1.007,0,0,1,.753.254.911.911,0,0,1,.247.663" transform="translate(878.581 103.25)" fill="#161615"/>
      <path id="Trazado_9282" data-name="Trazado 9282" d="M133.866,28.792c0,.1-.06.175-.183.212l-.224.085a.572.572,0,0,0-.213.148,1.141,1.141,0,0,0-.2.36l-2.242,5.87c-.03.074-.067.113-.115.113h-1.4c-.046,0-.085-.039-.111-.113l-2.316-5.927a.837.837,0,0,0-.2-.34.711.711,0,0,0-.189-.111L126.248,29q-.185-.056-.185-.212v-.268a.175.175,0,0,1,.2-.2h3.175a.177.177,0,0,1,.2.2v.268c0,.111-.069.183-.2.212l-.564.113a.418.418,0,0,0-.2.12c-.062.06-.069.168-.023.317l1.272,3.711a4.859,4.859,0,0,1,.226.875h.026a3.41,3.41,0,0,1,.1-.437c.048-.161.1-.3.141-.423l1.272-3.725c.046-.15.039-.258-.023-.317a.415.415,0,0,0-.2-.12L130.891,29c-.134-.028-.2-.1-.2-.212v-.268a.176.176,0,0,1,.2-.2h2.78a.175.175,0,0,1,.2.2Z" transform="translate(880.42 104.637)" fill="#161615"/>
      <path id="Trazado_9280" data-name="Trazado 9280" d="M136.88,30.3a1.74,1.74,0,0,1-.3,1.023,2.365,2.365,0,0,1-.767.707,3.668,3.668,0,0,1-1.067.4,5.572,5.572,0,0,1-1.2.129h-.467a2.882,2.882,0,0,1-.422-.028c-.115-.019-.166.034-.155.155a1.776,1.776,0,0,0,.233.8,2.142,2.142,0,0,0,.508.6,2.226,2.226,0,0,0,.69.381,2.456,2.456,0,0,0,.8.134,2.871,2.871,0,0,0,.924-.141,4.311,4.311,0,0,0,.656-.27.183.183,0,0,1,.19,0,.292.292,0,0,1,.106.141l.157.679a.241.241,0,0,1-.115.28,4.292,4.292,0,0,1-.979.383,4.474,4.474,0,0,1-1.178.155,4.291,4.291,0,0,1-1.623-.282,3.073,3.073,0,0,1-1.152-.8,3.422,3.422,0,0,1-.69-1.222,4.866,4.866,0,0,1-.235-1.552,4.179,4.179,0,0,1,.3-1.6,3.8,3.8,0,0,1,.79-1.212,3.354,3.354,0,0,1,1.138-.762,3.522,3.522,0,0,1,1.333-.261,3.139,3.139,0,0,1,.967.148,2.433,2.433,0,0,1,.8.43,2.1,2.1,0,0,1,.549.684,1.951,1.951,0,0,1,.2.894m-1.595-.048a1.159,1.159,0,0,0-1.155-1.164,1.334,1.334,0,0,0-.792.231,1.868,1.868,0,0,0-.527.575,2.411,2.411,0,0,0-.289.751,3.614,3.614,0,0,0-.085.757.311.311,0,0,0,.019.141.236.236,0,0,0,.136.042c.1.009.212.016.323.021s.231.005.353.005a3.814,3.814,0,0,0,.734-.069,2.231,2.231,0,0,0,.651-.226,1.258,1.258,0,0,0,.457-.42,1.133,1.133,0,0,0,.176-.646" transform="translate(884.037 104.496)" fill="#161615"/>
      <path id="Trazado_9277" data-name="Trazado 9277" d="M140.129,29.712a.3.3,0,0,1-.1.125.175.175,0,0,1-.183.016,2.493,2.493,0,0,0-.43-.12,2.429,2.429,0,0,0-.487-.051,1.569,1.569,0,0,0-.48.078,1.352,1.352,0,0,0-.423.226,1.118,1.118,0,0,0-.3.376,1.13,1.13,0,0,0-.113.506v3.5a.565.565,0,0,0,.071.316.25.25,0,0,0,.169.122l.847.127a.177.177,0,0,1,.148.078.272.272,0,0,1,.035.134v.266a.175.175,0,0,1-.2.2h-3.542a.175.175,0,0,1-.2-.2v-.266a.2.2,0,0,1,.183-.212l.635-.127a.3.3,0,0,0,.169-.129.542.542,0,0,0,.071-.309V29.8a.761.761,0,0,0-.064-.3.287.287,0,0,0-.233-.178l-.706-.111a.206.206,0,0,1-.183-.212V28.71a.2.2,0,0,1,.2-.212l2.074-.254c.15-.011.235.076.254.254.011.15.025.293.042.423.019.113.034.219.042.316s.014.164.014.192h.056a5.332,5.332,0,0,1,.917-.9,1.861,1.861,0,0,1,1.157-.36,2.354,2.354,0,0,1,.367.028,1.236,1.236,0,0,1,.339.1c.1.037.127.131.1.28Z" transform="translate(887.112 104.521)" fill="#161615"/>
      <path id="Trazado_9276" data-name="Trazado 9276" d="M143.476,33.3a2.166,2.166,0,0,1-.256,1.067,2.389,2.389,0,0,1-.669.773,3.144,3.144,0,0,1-.94.474,3.555,3.555,0,0,1-1.057.161c-.18,0-.36-.007-.545-.019s-.356-.037-.522-.065-.314-.056-.452-.083-.245-.058-.33-.085a.372.372,0,0,1-.148-.093.211.211,0,0,1-.064-.162V33.724a.173.173,0,0,1,.2-.2h.4q.167,0,.212.2l.125.494a.634.634,0,0,0,.376.425,1.893,1.893,0,0,0,.781.141,1.6,1.6,0,0,0,.94-.282.9.9,0,0,0,.4-.778.86.86,0,0,0-.288-.684,2.736,2.736,0,0,0-.743-.43l-.859-.353a3.337,3.337,0,0,1-1.067-.69,1.615,1.615,0,0,1-.43-1.2,1.855,1.855,0,0,1,.242-.96,2.24,2.24,0,0,1,.619-.686,2.832,2.832,0,0,1,.87-.415,3.4,3.4,0,0,1,.967-.141,5.73,5.73,0,0,1,.945.069,3.655,3.655,0,0,1,.69.168.254.254,0,0,1,.2.249v1.39a.188.188,0,0,1-.213.212h-.323c-.1,0-.175-.065-.212-.2l-.115-.437c-.085-.337-.413-.508-.986-.508a1.565,1.565,0,0,0-.792.213.69.69,0,0,0-.367.635.7.7,0,0,0,.277.6,3.188,3.188,0,0,0,.683.376l.818.339a3.993,3.993,0,0,1,.616.3,2.664,2.664,0,0,1,.522.418,1.811,1.811,0,0,1,.367.557,1.9,1.9,0,0,1,.134.743" transform="translate(889.917 104.516)" fill="#161615"/>
      <path id="Trazado_9274" data-name="Trazado 9274" d="M145.824,36.573a.22.22,0,0,1-.125.238,3.151,3.151,0,0,1-.515.162,2.721,2.721,0,0,1-.642.078,1.668,1.668,0,0,1-1.314-.452,1.848,1.848,0,0,1-.393-1.256V31.056a.786.786,0,0,0-.063-.3.292.292,0,0,0-.233-.178l-.579-.111c-.123-.03-.185-.1-.185-.2v-.282a.2.2,0,0,1,.2-.212l2.23-.252a.211.211,0,0,1,.164.041.176.176,0,0,1,.078.141v5.477a.91.91,0,0,0,.148.563.547.547,0,0,0,.471.2,1.018,1.018,0,0,0,.247-.026c.071-.019.145-.044.219-.071a.166.166,0,0,1,.141.005c.056.025.09.086.1.19Zm-1.171-9.146a.893.893,0,0,1-.273.7,1.1,1.1,0,0,1-.757.247.912.912,0,0,1-.762-.289.995.995,0,0,1-.168-.967.873.873,0,0,1,.175-.3.971.971,0,0,1,.31-.219,1.171,1.171,0,0,1,.474-.085,1.007,1.007,0,0,1,.753.254.911.911,0,0,1,.247.663" transform="translate(892.421 103.25)" fill="#161615"/>
      <path id="Trazado_9271" data-name="Trazado 9271" d="M152.018,36.6a.2.2,0,0,1-.2.21l-2.074.256a.206.206,0,0,1-.238-.212L149.423,36h-.058a5.579,5.579,0,0,1-.972.748,2.426,2.426,0,0,1-1.272.325,2.277,2.277,0,0,1-1.136-.284,2.785,2.785,0,0,1-.854-.746,3.517,3.517,0,0,1-.543-1.081,4.312,4.312,0,0,1-.19-1.289,4.955,4.955,0,0,1,.261-1.646,3.589,3.589,0,0,1,.769-1.275,3.472,3.472,0,0,1,1.235-.833,4.366,4.366,0,0,1,1.66-.3,4.74,4.74,0,0,1,.508.028,2.685,2.685,0,0,1,.422.071V28a.791.791,0,0,0-.062-.3.292.292,0,0,0-.235-.178l-.579-.111c-.122-.03-.183-.1-.183-.2v-.282a.2.2,0,0,1,.2-.213l2.215-.252a.208.208,0,0,1,.16.041.168.168,0,0,1,.078.141v8.863a.821.821,0,0,0,.064.31.3.3,0,0,0,.233.183l.693.113c.12.026.182.093.182.2Zm-2.766-5a.793.793,0,0,0-.344-.727,1.592,1.592,0,0,0-.868-.219,1.73,1.73,0,0,0-.9.219,1.823,1.823,0,0,0-.616.579,2.439,2.439,0,0,0-.344.825,4.371,4.371,0,0,0-.108.974,4.229,4.229,0,0,0,.1.908,2.824,2.824,0,0,0,.31.827,1.848,1.848,0,0,0,.542.6,1.377,1.377,0,0,0,.811.233,1.549,1.549,0,0,0,1-.332,1.1,1.1,0,0,0,.407-.9Z" transform="translate(894.426 103.213)" fill="#161615"/>
      <path id="Trazado_9269" data-name="Trazado 9269" d="M155.824,35.32c.009.132-.035.212-.129.238a3.618,3.618,0,0,1-.55.141,3.4,3.4,0,0,1-.677.071.978.978,0,0,1-.8-.3,1.176,1.176,0,0,1-.273-.69h-.058a4.1,4.1,0,0,1-.894.7,2.556,2.556,0,0,1-1.293.289,2.157,2.157,0,0,1-.826-.153,1.951,1.951,0,0,1-.635-.418,1.816,1.816,0,0,1-.407-.626,2.059,2.059,0,0,1-.148-.79,2.248,2.248,0,0,1,.309-1.206,2.545,2.545,0,0,1,.84-.827,3.854,3.854,0,0,1,1.256-.471,7.734,7.734,0,0,1,1.545-.148.11.11,0,0,0,.113-.071.341.341,0,0,0,.028-.129v-.323a1.117,1.117,0,0,0-.452-.99,1.9,1.9,0,0,0-1.1-.31,2.983,2.983,0,0,0-.859.122,3.21,3.21,0,0,0-.707.289c-.159.093-.263.051-.309-.127l-.155-.721c-.039-.15,0-.243.125-.282a5.326,5.326,0,0,1,1.072-.31,6.974,6.974,0,0,1,1.256-.111,2.854,2.854,0,0,1,2,.626,2.612,2.612,0,0,1,.677,2V34.22c0,.291.132.437.4.437a.646.646,0,0,0,.183-.021c.048-.016.1-.032.171-.049.131-.039.206.018.226.168Zm-2.6-3.119c0-.086-.046-.127-.139-.127a4.73,4.73,0,0,0-1.1.111,2.1,2.1,0,0,0-.728.312,1.213,1.213,0,0,0-.4.459,1.252,1.252,0,0,0-.127.556,1.019,1.019,0,0,0,.337.8,1.22,1.22,0,0,0,.857.3,1.378,1.378,0,0,0,.561-.1,1.311,1.311,0,0,0,.407-.277,1.075,1.075,0,0,0,.25-.386,1.191,1.191,0,0,0,.085-.432Z" transform="translate(898.044 104.516)" fill="#161615"/>
      <path id="Trazado_9266" data-name="Trazado 9266" d="M160.881,36.6a.2.2,0,0,1-.2.21l-2.074.256a.206.206,0,0,1-.238-.212L158.286,36h-.058a5.578,5.578,0,0,1-.972.748,2.426,2.426,0,0,1-1.272.325,2.276,2.276,0,0,1-1.136-.284,2.785,2.785,0,0,1-.854-.746,3.518,3.518,0,0,1-.543-1.081,4.312,4.312,0,0,1-.19-1.289,4.956,4.956,0,0,1,.261-1.646,3.589,3.589,0,0,1,.769-1.275,3.471,3.471,0,0,1,1.235-.833,4.366,4.366,0,0,1,1.66-.3,4.74,4.74,0,0,1,.508.028,2.685,2.685,0,0,1,.422.071V28a.79.79,0,0,0-.062-.3.292.292,0,0,0-.235-.178l-.579-.111c-.122-.03-.183-.1-.183-.2v-.282a.2.2,0,0,1,.2-.213l2.215-.252a.208.208,0,0,1,.161.041.168.168,0,0,1,.078.141v8.863a.821.821,0,0,0,.064.31.3.3,0,0,0,.233.183l.693.113c.12.026.182.093.182.2Zm-2.766-5a.793.793,0,0,0-.344-.727,1.592,1.592,0,0,0-.868-.219,1.73,1.73,0,0,0-.9.219,1.823,1.823,0,0,0-.616.579,2.439,2.439,0,0,0-.344.825,4.369,4.369,0,0,0-.108.974,4.227,4.227,0,0,0,.1.908,2.823,2.823,0,0,0,.31.827,1.848,1.848,0,0,0,.542.6,1.376,1.376,0,0,0,.811.233,1.549,1.549,0,0,0,1-.332,1.1,1.1,0,0,0,.407-.9Z" transform="translate(901.196 103.213)" fill="#161615"/>
      <path id="Trazado_9267" data-name="Trazado 9267" d="M164.023,30.3a1.74,1.74,0,0,1-.3,1.023,2.364,2.364,0,0,1-.767.707,3.668,3.668,0,0,1-1.067.4,5.572,5.572,0,0,1-1.2.129h-.467a2.882,2.882,0,0,1-.422-.028c-.115-.019-.166.034-.155.155a1.776,1.776,0,0,0,.233.8,2.142,2.142,0,0,0,.508.6,2.226,2.226,0,0,0,.69.381,2.456,2.456,0,0,0,.8.134,2.872,2.872,0,0,0,.924-.141,4.314,4.314,0,0,0,.656-.27.183.183,0,0,1,.191,0,.292.292,0,0,1,.106.141l.157.679a.241.241,0,0,1-.115.28,4.293,4.293,0,0,1-.979.383,4.473,4.473,0,0,1-1.178.155,4.291,4.291,0,0,1-1.623-.282,3.074,3.074,0,0,1-1.152-.8,3.423,3.423,0,0,1-.69-1.222,4.866,4.866,0,0,1-.235-1.552,4.179,4.179,0,0,1,.3-1.6,3.794,3.794,0,0,1,.79-1.212,3.354,3.354,0,0,1,1.138-.762,3.522,3.522,0,0,1,1.333-.261,3.138,3.138,0,0,1,.967.148,2.433,2.433,0,0,1,.8.43,2.1,2.1,0,0,1,.549.684,1.951,1.951,0,0,1,.2.894m-1.595-.048a1.159,1.159,0,0,0-1.155-1.164,1.334,1.334,0,0,0-.792.231,1.867,1.867,0,0,0-.527.575,2.411,2.411,0,0,0-.289.751,3.614,3.614,0,0,0-.085.757.311.311,0,0,0,.019.141.236.236,0,0,0,.136.042c.1.009.212.016.323.021s.231.005.353.005a3.814,3.814,0,0,0,.734-.069,2.231,2.231,0,0,0,.651-.226,1.258,1.258,0,0,0,.457-.42,1.133,1.133,0,0,0,.176-.646" transform="translate(904.771 104.496)" fill="#161615"/>
      <path id="Trazado_9268" data-name="Trazado 9268" d="M167.2,33.3a2.166,2.166,0,0,1-.256,1.067,2.389,2.389,0,0,1-.669.773,3.144,3.144,0,0,1-.94.474,3.555,3.555,0,0,1-1.057.161c-.18,0-.36-.007-.545-.019s-.356-.037-.522-.065-.314-.056-.452-.083-.245-.058-.33-.085a.372.372,0,0,1-.148-.093.211.211,0,0,1-.063-.162V33.724a.173.173,0,0,1,.2-.2h.4q.167,0,.212.2l.125.494a.634.634,0,0,0,.376.425,1.893,1.893,0,0,0,.781.141,1.6,1.6,0,0,0,.94-.282.9.9,0,0,0,.4-.778.86.86,0,0,0-.287-.684,2.736,2.736,0,0,0-.743-.43l-.859-.353a3.336,3.336,0,0,1-1.067-.69,1.615,1.615,0,0,1-.43-1.2,1.855,1.855,0,0,1,.242-.96,2.24,2.24,0,0,1,.619-.686,2.832,2.832,0,0,1,.87-.415,3.4,3.4,0,0,1,.967-.141,5.73,5.73,0,0,1,.945.069,3.655,3.655,0,0,1,.69.168.254.254,0,0,1,.2.249v1.39a.188.188,0,0,1-.213.212h-.323c-.1,0-.175-.065-.212-.2l-.115-.437c-.085-.337-.413-.508-.986-.508a1.564,1.564,0,0,0-.792.213.69.69,0,0,0-.367.635.7.7,0,0,0,.277.6,3.187,3.187,0,0,0,.683.376l.818.339a3.991,3.991,0,0,1,.616.3,2.663,2.663,0,0,1,.522.418,1.813,1.813,0,0,1,.367.557,1.9,1.9,0,0,1,.134.743" transform="translate(908.035 104.516)" fill="#161615"/>
      <path id="Trazado_9262" data-name="Trazado 9262" d="M168.246,32.83a3.372,3.372,0,0,1-.132.93,3.859,3.859,0,0,1-.374.875,4.087,4.087,0,0,1-.572.755,3.627,3.627,0,0,1-.727.586.326.326,0,0,1-.178.063.219.219,0,0,1-.118-.09l-.355-.411a.132.132,0,0,1-.034-.132.191.191,0,0,1,.092-.108,2.631,2.631,0,0,0,.464-.386,3.141,3.141,0,0,0,.4-.522,2.988,2.988,0,0,0,.28-.616,1.882,1.882,0,0,0,.093-.663,1.122,1.122,0,0,1-.827-.245.958.958,0,0,1-.318-.755,1.067,1.067,0,0,1,.064-.353.993.993,0,0,1,.2-.333,1.068,1.068,0,0,1,.33-.24,1.193,1.193,0,0,1,1.03.058,1.135,1.135,0,0,1,.388.393,1.823,1.823,0,0,1,.219.559,2.815,2.815,0,0,1,.071.635" transform="translate(910.736 106.752)" fill="#161615"/>
      <path id="Trazado_9263" data-name="Trazado 9263" d="M177.175,36.052a.28.28,0,0,1,0,.178.174.174,0,0,1-.1.118c-.1.037-.236.085-.4.141s-.349.111-.557.162a6.453,6.453,0,0,1-.656.127,4.949,4.949,0,0,1-.713.049,5.322,5.322,0,0,1-2.025-.372,4.686,4.686,0,0,1-1.566-1.039,4.57,4.57,0,0,1-1.016-1.58,5.405,5.405,0,0,1-.36-1.99,5.246,5.246,0,0,1,.388-2.053,4.644,4.644,0,0,1,2.667-2.6,5.456,5.456,0,0,1,2-.36c.085,0,.206.005.367.014s.332.025.515.044.369.041.557.069a3.069,3.069,0,0,1,.494.113.242.242,0,0,1,.183.254v2.046a.174.174,0,0,1-.2.2h-.5a.2.2,0,0,1-.21-.182l-.141-.778a.654.654,0,0,0-.437-.508,2.446,2.446,0,0,0-.875-.141,2.5,2.5,0,0,0-2.2,1.129,3.445,3.445,0,0,0-.487,1.164,6.035,6.035,0,0,0-.148,1.333,5.653,5.653,0,0,0,.2,1.51,3.652,3.652,0,0,0,.614,1.27,2.983,2.983,0,0,0,1.058.875,3.344,3.344,0,0,0,1.529.326,3.388,3.388,0,0,0,.863-.122,4.831,4.831,0,0,0,.706-.233.194.194,0,0,1,.19.014.3.3,0,0,1,.106.141Z" transform="translate(913.815 103.5)" fill="#161615"/>
      <path id="Trazado_9255" data-name="Trazado 9255" d="M182.789,35.285c.011.132-.034.212-.125.24a4.2,4.2,0,0,1-.545.141,3.437,3.437,0,0,1-.67.071,1.222,1.222,0,0,1-.838-.268,1.017,1.017,0,0,1-.319-.776h-.041a4.01,4.01,0,0,1-1.044.748,2.937,2.937,0,0,1-1.326.3,2.629,2.629,0,0,1-.861-.141,2.108,2.108,0,0,1-.729-.423,2.047,2.047,0,0,1-.5-.691,2.3,2.3,0,0,1-.182-.945V29.753a.8.8,0,0,0-.064-.3.294.294,0,0,0-.233-.176l-.579-.1a.206.206,0,0,1-.185-.212v-.282a.2.2,0,0,1,.2-.212l2.215-.254a.2.2,0,0,1,.162.042.17.17,0,0,1,.078.141v4.53a1.61,1.61,0,0,0,.4,1.192,1.416,1.416,0,0,0,1.049.4,1.616,1.616,0,0,0,1.074-.367,1.208,1.208,0,0,0,.437-.974V29.753a.8.8,0,0,0-.064-.3.294.294,0,0,0-.233-.176l-.579-.1a.206.206,0,0,1-.185-.212v-.282a.2.2,0,0,1,.2-.212l2.23-.254a.212.212,0,0,1,.164.042.174.174,0,0,1,.078.141V34.17a.527.527,0,0,0,.092.325.314.314,0,0,0,.275.127.723.723,0,0,0,.189-.021l.178-.049c.12-.028.191.028.21.169Z" transform="translate(917.457 104.551)" fill="#161615"/>
      <path id="Trazado_9256" data-name="Trazado 9256" d="M183.524,36.623a.231.231,0,0,1-.021.162.237.237,0,0,1-.106.078,2.617,2.617,0,0,1-.522.148,3.356,3.356,0,0,1-.647.063,1.648,1.648,0,0,1-1.312-.459,1.869,1.869,0,0,1-.4-1.263V28a.767.767,0,0,0-.064-.3.288.288,0,0,0-.233-.176l-.579-.113c-.123-.028-.183-.093-.183-.2v-.282a.2.2,0,0,1,.2-.212l2.228-.254a.206.206,0,0,1,.162.042.17.17,0,0,1,.078.141v8.537c0,.5.206.748.623.748a1,1,0,0,0,.259-.028c.071-.019.143-.039.219-.056.132-.037.206.018.226.169Z" transform="translate(921.209 103.213)" fill="#161615"/>
      <path id="Trazado_9257" data-name="Trazado 9257" d="M187.057,35.824a.205.205,0,0,1-.014.169.22.22,0,0,1-.111.1,3.355,3.355,0,0,1-.757.249,4.232,4.232,0,0,1-.923.106,2.175,2.175,0,0,1-1.6-.586,2.138,2.138,0,0,1-.593-1.587V30.349a.161.161,0,0,0-.049-.12.145.145,0,0,0-.106-.049h-.931c-.085,0-.116-.062-.1-.185l.085-.69a.143.143,0,0,1,.028-.085.082.082,0,0,1,.071-.044h.889c.113,0,.171-.065.171-.2v-.945a.488.488,0,0,1,.034-.2.243.243,0,0,1,.148-.129l1.131-.407c.15-.048.226.009.226.169v1.552a.136.136,0,0,0,.155.153h1.776a.1.1,0,0,1,.113.115v.774a.11.11,0,0,1-.035.071.1.1,0,0,1-.078.044h-1.75c-.122,0-.182.056-.182.169v3.556a1.5,1.5,0,0,0,.289.952,1.042,1.042,0,0,0,.882.374,1.7,1.7,0,0,0,.436-.056q.212-.058.423-.127a.2.2,0,0,1,.155.005.217.217,0,0,1,.1.148Z" transform="translate(923.052 103.842)" fill="#161615"/>
      <path id="Trazado_9258" data-name="Trazado 9258" d="M193.269,35.285c.011.132-.034.212-.125.24a4.2,4.2,0,0,1-.545.141,3.438,3.438,0,0,1-.67.071,1.222,1.222,0,0,1-.838-.268,1.017,1.017,0,0,1-.319-.776h-.041a4.011,4.011,0,0,1-1.044.748,2.937,2.937,0,0,1-1.326.3,2.629,2.629,0,0,1-.861-.141,2.108,2.108,0,0,1-.728-.423,2.046,2.046,0,0,1-.5-.691,2.3,2.3,0,0,1-.182-.945V29.753a.8.8,0,0,0-.064-.3.294.294,0,0,0-.233-.176l-.579-.1a.206.206,0,0,1-.185-.212v-.282a.2.2,0,0,1,.2-.212l2.215-.254a.2.2,0,0,1,.162.042.17.17,0,0,1,.078.141v4.53a1.61,1.61,0,0,0,.4,1.192,1.416,1.416,0,0,0,1.049.4,1.616,1.616,0,0,0,1.074-.367,1.208,1.208,0,0,0,.437-.974V29.753a.8.8,0,0,0-.063-.3.294.294,0,0,0-.233-.176l-.579-.1a.206.206,0,0,1-.185-.212v-.282a.2.2,0,0,1,.2-.212l2.23-.254a.212.212,0,0,1,.164.042.174.174,0,0,1,.078.141V34.17a.527.527,0,0,0,.092.325.314.314,0,0,0,.275.127.723.723,0,0,0,.189-.021l.178-.049c.12-.028.191.028.21.169Z" transform="translate(925.462 104.551)" fill="#161615"/>
      <path id="Trazado_9259" data-name="Trazado 9259" d="M195.326,29.712a.3.3,0,0,1-.1.125.175.175,0,0,1-.183.016,2.492,2.492,0,0,0-.43-.12,2.429,2.429,0,0,0-.487-.051,1.569,1.569,0,0,0-.48.078,1.352,1.352,0,0,0-.423.226,1.118,1.118,0,0,0-.3.376,1.13,1.13,0,0,0-.113.506v3.5a.566.566,0,0,0,.071.316.25.25,0,0,0,.169.122l.847.127a.177.177,0,0,1,.148.078.272.272,0,0,1,.035.134v.266a.175.175,0,0,1-.2.2h-3.542a.175.175,0,0,1-.2-.2v-.266a.2.2,0,0,1,.183-.212l.635-.127a.3.3,0,0,0,.169-.129.542.542,0,0,0,.071-.309V29.8a.761.761,0,0,0-.064-.3.287.287,0,0,0-.233-.178L190.2,29.2a.206.206,0,0,1-.183-.212V28.71a.2.2,0,0,1,.2-.212l2.074-.254c.15-.011.235.076.254.254.011.15.025.293.042.423.019.113.034.219.042.316s.014.164.014.192h.056a5.332,5.332,0,0,1,.917-.9,1.861,1.861,0,0,1,1.157-.36,2.353,2.353,0,0,1,.367.028,1.236,1.236,0,0,1,.339.1c.1.037.127.131.1.28Z" transform="translate(929.275 104.521)" fill="#161615"/>
      <path id="Trazado_9240" data-name="Trazado 9240" d="M200.293,35.32c.009.132-.035.212-.129.238a3.618,3.618,0,0,1-.55.141,3.4,3.4,0,0,1-.677.071.978.978,0,0,1-.8-.3,1.176,1.176,0,0,1-.273-.69h-.058a4.1,4.1,0,0,1-.894.7,2.556,2.556,0,0,1-1.293.289,2.157,2.157,0,0,1-.825-.153,1.951,1.951,0,0,1-.635-.418,1.815,1.815,0,0,1-.407-.626,2.058,2.058,0,0,1-.148-.79,2.247,2.247,0,0,1,.309-1.206,2.544,2.544,0,0,1,.84-.827,3.854,3.854,0,0,1,1.256-.471,7.734,7.734,0,0,1,1.545-.148.11.11,0,0,0,.113-.071.341.341,0,0,0,.028-.129v-.323a1.117,1.117,0,0,0-.452-.99,1.9,1.9,0,0,0-1.1-.31,2.983,2.983,0,0,0-.859.122,3.21,3.21,0,0,0-.707.289c-.159.093-.263.051-.309-.127l-.155-.721c-.039-.15,0-.243.125-.282a5.326,5.326,0,0,1,1.072-.31,6.973,6.973,0,0,1,1.256-.111,2.854,2.854,0,0,1,2,.626,2.612,2.612,0,0,1,.677,2V34.22c0,.291.132.437.4.437a.646.646,0,0,0,.183-.021c.048-.016.1-.032.171-.049.131-.039.206.018.226.168Zm-2.6-3.119c0-.086-.046-.127-.139-.127a4.73,4.73,0,0,0-1.1.111,2.1,2.1,0,0,0-.728.312,1.212,1.212,0,0,0-.4.459,1.252,1.252,0,0,0-.127.556,1.019,1.019,0,0,0,.337.8,1.22,1.22,0,0,0,.857.3,1.378,1.378,0,0,0,.561-.1,1.311,1.311,0,0,0,.407-.277,1.074,1.074,0,0,0,.25-.386,1.191,1.191,0,0,0,.085-.432Z" transform="translate(932.013 104.516)" fill="#161615"/>
      <path id="Trazado_9241" data-name="Trazado 9241" d="M207.388,28.792A.217.217,0,0,1,207.2,29l-.226.085a.616.616,0,0,0-.213.141,1.043,1.043,0,0,0-.2.367l-2.076,5.854a8.577,8.577,0,0,1-.5,1.117,4.357,4.357,0,0,1-.679.944,2.93,2.93,0,0,1-.894.651,2.7,2.7,0,0,1-1.159.24,2.557,2.557,0,0,1-.96-.157.268.268,0,0,1-.118-.1.141.141,0,0,1-.023-.141l.171-.792a.281.281,0,0,1,.106-.168.164.164,0,0,1,.161-.028,1.993,1.993,0,0,0,.374.118,1.733,1.733,0,0,0,.376.051,1.4,1.4,0,0,0,.64-.148,1.924,1.924,0,0,0,.515-.381,2.138,2.138,0,0,0,.381-.536,3.058,3.058,0,0,0,.242-.628h-.071a.172.172,0,0,1-.155-.063,1.139,1.139,0,0,1-.085-.148L200.36,29.54a1.05,1.05,0,0,0-.212-.34.643.643,0,0,0-.183-.111L199.739,29a.217.217,0,0,1-.183-.212v-.268a.175.175,0,0,1,.2-.2h3.2a.177.177,0,0,1,.2.2v.268c0,.111-.067.183-.2.212l-.563.113a.46.46,0,0,0-.212.12c-.065.06-.071.168-.014.317l1.411,3.641c.056.15.108.3.155.459a3.057,3.057,0,0,1,.1.416h.03a3.849,3.849,0,0,1,.092-.444c.042-.166.086-.312.134-.444l1.129-3.627c.046-.15.037-.258-.028-.317a.469.469,0,0,0-.212-.12L204.41,29a.2.2,0,0,1-.183-.212v-.268a.175.175,0,0,1,.2-.2h2.768a.176.176,0,0,1,.2.2Z" transform="translate(936.56 104.637)" fill="#161615"/>
      <path id="Trazado_9242" data-name="Trazado 9242" d="M215.412,31.52a5.421,5.421,0,0,1-.367,2.034,4.33,4.33,0,0,1-1.065,1.572,4.87,4.87,0,0,1-1.727,1.023,6.958,6.958,0,0,1-2.344.367h-3.358a.187.187,0,0,1-.212-.212v-.3a.221.221,0,0,1,.2-.238l.748-.141a.319.319,0,0,0,.185-.136.656.656,0,0,0,.069-.346V28.359a.66.66,0,0,0-.069-.346.324.324,0,0,0-.185-.134l-.748-.155a.223.223,0,0,1-.2-.24V27.2a.187.187,0,0,1,.212-.212h3.979a5.282,5.282,0,0,1,3.6,1.124,4.284,4.284,0,0,1,1.284,3.406m-1.947.176a4.208,4.208,0,0,0-.769-2.732,2.882,2.882,0,0,0-2.349-.928h-.833a.149.149,0,0,0-.169.169V34.95a.45.45,0,0,0,.134.381.55.55,0,0,0,.332.1h.339a4.194,4.194,0,0,0,1.334-.2,2.571,2.571,0,0,0,1.051-.654,3.1,3.1,0,0,0,.684-1.162,5.259,5.259,0,0,0,.247-1.713" transform="translate(941.741 103.617)" fill="#161615"/>
      <path id="Trazado_9243" data-name="Trazado 9243" d="M218.133,30.3a1.74,1.74,0,0,1-.3,1.023,2.364,2.364,0,0,1-.767.707,3.668,3.668,0,0,1-1.067.4,5.572,5.572,0,0,1-1.2.129h-.467a2.882,2.882,0,0,1-.422-.028c-.115-.019-.166.034-.155.155a1.776,1.776,0,0,0,.233.8,2.142,2.142,0,0,0,.508.6,2.226,2.226,0,0,0,.69.381,2.456,2.456,0,0,0,.8.134,2.872,2.872,0,0,0,.924-.141,4.314,4.314,0,0,0,.656-.27.183.183,0,0,1,.19,0,.292.292,0,0,1,.106.141l.157.679a.241.241,0,0,1-.115.28,4.293,4.293,0,0,1-.979.383,4.473,4.473,0,0,1-1.178.155,4.291,4.291,0,0,1-1.623-.282,3.074,3.074,0,0,1-1.152-.8,3.422,3.422,0,0,1-.69-1.222,4.866,4.866,0,0,1-.235-1.552,4.18,4.18,0,0,1,.3-1.6,3.8,3.8,0,0,1,.79-1.212,3.354,3.354,0,0,1,1.138-.762,3.522,3.522,0,0,1,1.333-.261,3.138,3.138,0,0,1,.967.148,2.434,2.434,0,0,1,.8.43,2.1,2.1,0,0,1,.549.684,1.951,1.951,0,0,1,.2.894m-1.595-.048a1.159,1.159,0,0,0-1.155-1.164,1.334,1.334,0,0,0-.792.231,1.867,1.867,0,0,0-.527.575,2.41,2.41,0,0,0-.289.751,3.612,3.612,0,0,0-.085.757.311.311,0,0,0,.019.141.236.236,0,0,0,.136.042c.1.009.212.016.323.021s.231.005.353.005a3.814,3.814,0,0,0,.734-.069,2.23,2.23,0,0,0,.651-.226,1.258,1.258,0,0,0,.457-.42,1.133,1.133,0,0,0,.176-.646" transform="translate(946.104 104.496)" fill="#161615"/>
      <path id="Trazado_9244" data-name="Trazado 9244" d="M223.795,31.5a4.938,4.938,0,0,1-.268,1.658,3.623,3.623,0,0,1-.783,1.3,3.542,3.542,0,0,1-1.265.848,4.526,4.526,0,0,1-1.706.3,4.381,4.381,0,0,1-.5-.028c-.168-.019-.309-.037-.422-.056v1.665a.542.542,0,0,0,.071.31.244.244,0,0,0,.169.111l.845.129a.172.172,0,0,1,.148.078.256.256,0,0,1,.037.134v.268a.175.175,0,0,1-.2.2h-3.542a.177.177,0,0,1-.2-.2v-.268a.2.2,0,0,1,.185-.212l.635-.129a.325.325,0,0,0,.169-.118.519.519,0,0,0,.071-.3V29.783a.792.792,0,0,0-.064-.3.284.284,0,0,0-.233-.176l-.693-.113a.206.206,0,0,1-.182-.212V28.71a.2.2,0,0,1,.2-.213l2.088-.252c.141-.011.22.06.24.212l.083.774h.058a4.6,4.6,0,0,1,.979-.739,2.55,2.55,0,0,1,1.293-.317,2.478,2.478,0,0,1,1.143.259,2.752,2.752,0,0,1,.873.707,3.194,3.194,0,0,1,.566,1.05,4.213,4.213,0,0,1,.2,1.314m-1.693.409a3.972,3.972,0,0,0-.108-.924,2.586,2.586,0,0,0-.323-.792,1.77,1.77,0,0,0-.559-.556,1.5,1.5,0,0,0-.817-.212,1.543,1.543,0,0,0-1.037.339,1.1,1.1,0,0,0-.4.889v2.99a.859.859,0,0,0,.282.693,1.38,1.38,0,0,0,.9.24,1.79,1.79,0,0,0,1.6-.825,2.542,2.542,0,0,0,.351-.854,4.583,4.583,0,0,0,.108-.988" transform="translate(949.179 104.521)" fill="#161615"/>
      <path id="Trazado_9245" data-name="Trazado 9245" d="M228.006,31.869a4.808,4.808,0,0,1-.245,1.531,3.863,3.863,0,0,1-.714,1.27,3.509,3.509,0,0,1-1.127.868,3.387,3.387,0,0,1-1.5.323,3.543,3.543,0,0,1-1.475-.289,3.078,3.078,0,0,1-1.079-.8,3.478,3.478,0,0,1-.663-1.192,4.876,4.876,0,0,1,.021-3,3.829,3.829,0,0,1,.713-1.263,3.361,3.361,0,0,1,2.625-1.178,3.565,3.565,0,0,1,1.475.289,3.1,3.1,0,0,1,1.079.792,3.43,3.43,0,0,1,.663,1.178,4.62,4.62,0,0,1,.226,1.468m-1.75.266a5.542,5.542,0,0,0-.127-1.249,3.332,3.332,0,0,0-.358-.952,1.811,1.811,0,0,0-.566-.607,1.35,1.35,0,0,0-.741-.212,1.467,1.467,0,0,0-.84.226,1.7,1.7,0,0,0-.536.6,2.634,2.634,0,0,0-.282.873,6.953,6.953,0,0,0-.078,1.053,4.309,4.309,0,0,0,.48,2.2,1.44,1.44,0,0,0,1.27.8,1.566,1.566,0,0,0,.847-.212,1.541,1.541,0,0,0,.543-.586,2.946,2.946,0,0,0,.3-.877,6.007,6.007,0,0,0,.092-1.065" transform="translate(952.924 104.496)" fill="#161615"/>
      <path id="Trazado_9246" data-name="Trazado 9246" d="M230.693,29.712a.3.3,0,0,1-.1.125.175.175,0,0,1-.183.016,2.493,2.493,0,0,0-.43-.12,2.429,2.429,0,0,0-.487-.051,1.568,1.568,0,0,0-.48.078,1.353,1.353,0,0,0-.423.226,1.118,1.118,0,0,0-.3.376,1.13,1.13,0,0,0-.113.506v3.5a.565.565,0,0,0,.071.316.25.25,0,0,0,.169.122l.847.127a.177.177,0,0,1,.148.078.272.272,0,0,1,.035.134v.266a.175.175,0,0,1-.2.2h-3.542a.175.175,0,0,1-.2-.2v-.266a.2.2,0,0,1,.183-.212l.635-.127a.3.3,0,0,0,.169-.129.542.542,0,0,0,.071-.309V29.8a.761.761,0,0,0-.064-.3.287.287,0,0,0-.233-.178l-.706-.111a.206.206,0,0,1-.183-.212V28.71a.2.2,0,0,1,.2-.212l2.074-.254c.15-.011.235.076.254.254.011.15.025.293.042.423.019.113.034.219.042.316s.014.164.014.192h.056a5.332,5.332,0,0,1,.917-.9,1.861,1.861,0,0,1,1.157-.36,2.353,2.353,0,0,1,.367.028,1.236,1.236,0,0,1,.339.1c.1.037.127.131.1.28Z" transform="translate(956.292 104.521)" fill="#161615"/>
      <path id="Trazado_9247" data-name="Trazado 9247" d="M233.864,35.824a.205.205,0,0,1-.014.169.219.219,0,0,1-.111.1,3.356,3.356,0,0,1-.757.249,4.232,4.232,0,0,1-.923.106,2.175,2.175,0,0,1-1.6-.586,2.139,2.139,0,0,1-.593-1.587V30.349a.161.161,0,0,0-.049-.12.145.145,0,0,0-.106-.049h-.931c-.085,0-.116-.062-.1-.185l.085-.69a.143.143,0,0,1,.028-.085.082.082,0,0,1,.071-.044h.889c.113,0,.171-.065.171-.2v-.945a.489.489,0,0,1,.034-.2.243.243,0,0,1,.148-.129l1.131-.407c.15-.048.226.009.226.169v1.552a.136.136,0,0,0,.155.153H233.4a.1.1,0,0,1,.113.115v.774a.11.11,0,0,1-.035.071.1.1,0,0,1-.078.044h-1.75c-.122,0-.182.056-.182.169v3.556a1.5,1.5,0,0,0,.289.952,1.042,1.042,0,0,0,.882.374,1.7,1.7,0,0,0,.436-.056q.212-.058.423-.127a.2.2,0,0,1,.155.005.217.217,0,0,1,.1.148Z" transform="translate(958.807 103.842)" fill="#161615"/>
      <path id="Trazado_9248" data-name="Trazado 9248" d="M238.044,30.3a1.74,1.74,0,0,1-.3,1.023,2.364,2.364,0,0,1-.767.707,3.668,3.668,0,0,1-1.067.4,5.572,5.572,0,0,1-1.2.129h-.467a2.882,2.882,0,0,1-.422-.028c-.115-.019-.166.034-.155.155a1.776,1.776,0,0,0,.233.8,2.142,2.142,0,0,0,.508.6,2.226,2.226,0,0,0,.69.381,2.456,2.456,0,0,0,.8.134,2.872,2.872,0,0,0,.924-.141,4.313,4.313,0,0,0,.656-.27.183.183,0,0,1,.191,0,.292.292,0,0,1,.106.141l.157.679a.241.241,0,0,1-.115.28,4.293,4.293,0,0,1-.979.383,4.474,4.474,0,0,1-1.178.155,4.291,4.291,0,0,1-1.623-.282,3.074,3.074,0,0,1-1.152-.8,3.422,3.422,0,0,1-.69-1.222,4.865,4.865,0,0,1-.235-1.552,4.179,4.179,0,0,1,.3-1.6,3.8,3.8,0,0,1,.79-1.212,3.354,3.354,0,0,1,1.138-.762,3.521,3.521,0,0,1,1.333-.261,3.138,3.138,0,0,1,.967.148,2.433,2.433,0,0,1,.8.43,2.1,2.1,0,0,1,.549.684,1.951,1.951,0,0,1,.2.894m-1.595-.048a1.159,1.159,0,0,0-1.155-1.164,1.334,1.334,0,0,0-.792.231,1.868,1.868,0,0,0-.527.575,2.411,2.411,0,0,0-.289.751,3.616,3.616,0,0,0-.085.757.311.311,0,0,0,.019.141.236.236,0,0,0,.136.042c.1.009.212.016.323.021s.231.005.353.005a3.814,3.814,0,0,0,.734-.069,2.231,2.231,0,0,0,.651-.226,1.259,1.259,0,0,0,.457-.42,1.133,1.133,0,0,0,.176-.646" transform="translate(961.314 104.496)" fill="#161615"/>
      <path id="Trazado_9249" data-name="Trazado 9249" d="M241.216,33.3a2.166,2.166,0,0,1-.256,1.067,2.389,2.389,0,0,1-.669.773,3.144,3.144,0,0,1-.94.474,3.555,3.555,0,0,1-1.057.161c-.18,0-.36-.007-.545-.019s-.356-.037-.522-.065-.314-.056-.452-.083-.245-.058-.33-.085a.372.372,0,0,1-.148-.093.211.211,0,0,1-.064-.162V33.724a.173.173,0,0,1,.2-.2h.4q.167,0,.212.2l.125.494a.634.634,0,0,0,.376.425,1.893,1.893,0,0,0,.781.141,1.6,1.6,0,0,0,.94-.282.9.9,0,0,0,.4-.778.86.86,0,0,0-.288-.684,2.736,2.736,0,0,0-.743-.43l-.859-.353a3.337,3.337,0,0,1-1.067-.69,1.615,1.615,0,0,1-.43-1.2,1.855,1.855,0,0,1,.242-.96,2.24,2.24,0,0,1,.619-.686,2.832,2.832,0,0,1,.87-.415,3.4,3.4,0,0,1,.967-.141,5.73,5.73,0,0,1,.945.069,3.655,3.655,0,0,1,.69.168.254.254,0,0,1,.2.249v1.39a.188.188,0,0,1-.213.212h-.323c-.1,0-.175-.065-.212-.2l-.115-.437c-.085-.337-.413-.508-.986-.508a1.564,1.564,0,0,0-.792.213.69.69,0,0,0-.367.635.7.7,0,0,0,.277.6,3.187,3.187,0,0,0,.683.376l.818.339a3.992,3.992,0,0,1,.616.3,2.664,2.664,0,0,1,.522.418,1.811,1.811,0,0,1,.367.557,1.9,1.9,0,0,1,.134.743" transform="translate(964.578 104.516)" fill="#161615"/>
    </g>
    <g id="Grupo_3110" data-name="Grupo 3110" transform="translate(37 9.971)">
      <g id="Grupo_3105" data-name="Grupo 3105" transform="translate(945 73.029)">
        <g id="Grupo_3100" data-name="Grupo 3100" transform="translate(0 0)">
          <g id="Grupo_3095" data-name="Grupo 3095">
            <g id="Grupo_3090" data-name="Grupo 3090">
              <rect id="Rectngulo_2549" data-name="Rectngulo 2549" width="234" height="75" fill="none"/>
            </g>
          </g>
        </g>
      </g>
    </g>
  </g>
</svg>
