<?xml version="1.0" encoding="UTF-8"?>
<!DOCTYPE svg PUBLIC "-//W3C//DTD SVG 1.1//EN" "http://www.w3.org/Graphics/SVG/1.1/DTD/svg11.dtd">
<!-- Creator: CorelDRAW 2021 (64-Bit) -->
<svg xmlns="http://www.w3.org/2000/svg" xml:space="preserve" width="41.0649mm" height="52.7437mm" version="1.1" style="shape-rendering:geometricPrecision; text-rendering:geometricPrecision; image-rendering:optimizeQuality; fill-rule:evenodd; clip-rule:evenodd"
viewBox="0 0 4092.29 5256.13"
 xmlns:xlink="http://www.w3.org/1999/xlink"
 xmlns:xodm="http://www.corel.com/coreldraw/odm/2003">
 <defs>
  <style type="text/css">
   <![CDATA[
    .fil0 {fill:#00CCFF}
    .fil1 {fill:black;fill-rule:nonzero}
    .fil2 {fill:#00CCFF;fill-rule:nonzero}
   ]]>
  </style>
 </defs>
 <g id="Capa_x0020_1">
  <metadata id="CorelCorpID_0Corel-Layer"/>
  <path class="fil0" d="M1522.02 3838.62c178.37,-3.89 356.47,-5.54 534.32,-5.1 623.48,1.56 1241.36,28.79 1854.5,77.45 -49.12,-619.22 -78.05,-1240.61 -80.41,-1864.77 -2.35,-621.82 21.96,-1243.55 79.27,-1865.11 -621.82,46.96 -1244.54,72.56 -1868.18,73.68 -622.85,1.15 -1242.42,-22.11 -1858.25,-72.79 62.43,631.94 87.15,1258.2 83.63,1880.16 -0.19,33.31 -0.46,66.63 -0.82,99.91 21.67,-56.46 44.1,-111.45 66.61,-163.81 12.88,-29.99 24.05,-57.5 36.76,-87.37 49.61,-116.4 112.63,-254.72 236.49,-318.38 54.5,-28.01 112.96,-31.35 170.35,-12.17 64.8,21.65 79.56,38.83 126.66,85.96 129.09,129.08 7.47,354.8 2.21,430.24 198.59,-198.6 402.56,-393.85 600.57,-591.85 48.94,-48.95 101.56,-104.95 150.67,-146.56 42.11,-35.68 99.87,-110.55 150.69,-135.93 86.23,-43.06 225.77,-37.71 299.19,35.72 60.05,60.02 94.69,108.62 103.26,185.61 16.55,148.92 -61.58,209.46 -166.58,314.48 -51.42,51.43 -97.34,101.7 -150.7,155.05 15.96,15.96 48.88,35.79 82.99,69.89 63.02,63.04 83.62,146.01 73.93,224.96 -8.76,71.38 -10.88,38.98 46.17,79.11 26.41,18.59 52.59,43.36 76.44,67.21 58.87,58.85 72.52,189.18 47.35,264.25 -2.95,8.88 -4.25,11.25 -7.74,19.64 -10.56,25.47 10.79,21.73 41.19,41.78 149.61,98.5 142.95,305.55 49.55,429.94 -39.55,52.73 -152.93,166.72 -210.08,223.88l-11.98 11.98c-41.74,41.74 -80.55,76.18 -120.11,115.73 -29.65,29.65 -58.36,61.57 -89.55,89.58l-58.96 54.75c-12.66,12.6 -16.96,12.88 -28.39,23.78 -48.19,45.95 -151.36,130.38 -261.05,209.1z"/>
  <path class="fil1" d="M3997.07 4092.02c-646.38,-53.79 -1293.29,-84.01 -1940.74,-85.61 -269.94,-0.68 -540.48,3.58 -811.64,13.04 -134.15,4.68 -164.01,-143.07 -43.97,-200.23 9.54,-4.54 18.31,-8.59 25.45,-12.13 212.2,-105.46 502.37,-371.93 668.25,-537.83 33.47,-33.47 76.1,-71.12 101.67,-104.84 26.5,-34.93 75.9,-69.69 101.8,-104.83 34.06,-46.22 60.11,-53.91 77.67,-104.84 35.42,-102.75 -42.71,-148 -110.78,-126.59 -51.89,16.32 -142.27,136.41 -196.56,168.5 -58.14,34.37 -132.43,-22.37 -129.14,-85.58 4.8,-92.88 318.47,-296.51 306.23,-386.52 -6.48,-47.56 -43.23,-88.71 -94.08,-92.81 -85.26,-6.86 -294.05,300.5 -384.37,305.79 -47.88,2.8 -95.34,-44.59 -93.47,-92.89 4.42,-113.54 414.45,-371.34 391.28,-489.19 -8.66,-43.95 -68.15,-94.43 -116.56,-77.89 -85.54,29.26 -340.81,353.48 -410.57,366.58 -46.75,8.81 -105.83,-28.85 -112.34,-79.03 -8.24,-63.86 515.39,-555.85 719.53,-766.84 16.4,-16.98 30.74,-32.11 42.58,-45.08 6.15,-6.71 11.92,-12.57 16.3,-18.33 18.36,-23.98 18.66,-28.76 20.76,-62.96 -1.96,-35.96 -25.03,-74.02 -62.25,-87.46 -45.04,-16.23 -58.38,2.89 -96.08,31.86 -113.86,87.41 -277.25,262.95 -384.37,370.08 -234.16,234.15 -470.65,463.83 -703.2,698.85 -13.03,13.17 -18.71,23.8 -32.75,23.09 -32,-1.61 -71.38,-2.26 -93.8,-33.85 -15.78,-22.23 -20.73,-42.36 -17.7,-63.5 8.98,-62.95 27.91,-129.29 43.53,-192.19l81.9 -318.84c5.59,-21.96 8.69,-41.38 13.19,-63.31 15.43,-74.98 -69.9,-97.03 -97.02,-69.9 -62.33,62.33 -84.2,107.08 -116.31,174.7 -42.05,88.65 -78.12,181.38 -112.93,272.98l-69.24 194.38c-18.11,54.35 -32.23,103.18 -48.07,157.23 -22.54,76.86 -39.33,155.02 -53.08,233.67 -4.36,25.04 -7.63,51.34 -11.03,76.44 -2.86,21.33 -3.52,47.35 -6.31,73.14 -14.34,132.75 -194.8,136.38 -187.92,-13.39 13.39,-291.15 21.41,-582.61 23.05,-874.45 3.68,-649 -23.83,-1303.66 -93.56,-1965.93 -4.85,-47.54 29.75,-90.06 77.28,-94.92 5.5,-0.56 10.93,-0.59 16.26,-0.13l0.01 -0.21c649.91,56.8 1299.06,82.81 1947.51,81.62 648.46,-1.18 1301.11,-29.6 1957.24,-81.62 47.73,-3.74 89.48,31.93 93.22,79.66 0.58,7.38 0.21,14.63 -1,21.61 -63.33,648.36 -90.12,1296.6 -87.67,1944.65 2.45,647.93 34.5,1299 88.66,1952.37 3.93,47.74 -31.58,89.65 -79.31,93.57 -5.29,0.44 -10.49,0.39 -15.6,-0.11zm-2475.05 -253.4c178.37,-3.89 356.47,-5.54 534.32,-5.1 623.48,1.56 1241.36,28.79 1854.5,77.45 -49.12,-619.22 -78.05,-1240.61 -80.41,-1864.77 -2.35,-621.82 21.96,-1243.55 79.27,-1865.11 -621.82,46.96 -1244.54,72.56 -1868.18,73.68 -622.85,1.15 -1242.42,-22.11 -1858.25,-72.79 62.43,631.94 87.15,1258.2 83.63,1880.16 -0.19,33.31 -0.46,66.63 -0.82,99.91 21.67,-56.46 44.1,-111.45 66.61,-163.81 12.88,-29.99 24.05,-57.5 36.76,-87.37 49.61,-116.4 112.63,-254.72 236.49,-318.38 54.5,-28.01 112.96,-31.35 170.35,-12.17 64.8,21.65 79.56,38.83 126.66,85.96 129.09,129.08 7.47,354.8 2.21,430.24 198.59,-198.6 402.56,-393.85 600.57,-591.85 48.94,-48.95 101.56,-104.95 150.67,-146.56 42.11,-35.68 99.87,-110.55 150.69,-135.93 86.23,-43.06 225.77,-37.71 299.19,35.72 60.05,60.02 94.69,108.62 103.26,185.61 16.55,148.92 -61.58,209.46 -166.58,314.48 -51.42,51.43 -97.34,101.7 -150.7,155.05 15.96,15.96 48.88,35.79 82.99,69.89 63.02,63.04 83.62,146.01 73.93,224.96 -8.76,71.38 -10.88,38.98 46.17,79.11 26.41,18.59 52.59,43.36 76.44,67.21 58.87,58.85 72.52,189.18 47.35,264.25 -2.95,8.88 -4.25,11.25 -7.74,19.64 -10.56,25.47 10.79,21.73 41.19,41.78 149.61,98.5 142.95,305.55 49.55,429.94 -39.55,52.73 -152.93,166.72 -210.08,223.88l-11.98 11.98c-41.74,41.74 -80.55,76.18 -120.11,115.73 -29.65,29.65 -58.36,61.57 -89.55,89.58l-58.96 54.75c-12.66,12.6 -16.96,12.88 -28.39,23.78 -48.19,45.95 -151.36,130.38 -261.05,209.1z"/>
  <path class="fil2" d="M423.89 4555.74c40.63,0 74.89,3.49 102.79,10.46 27.89,6.97 50.18,17.89 66.85,32.75 16.68,14.85 28.65,33.95 35.94,57.3 7.27,23.35 10.91,51.39 10.91,84.14l0 241.95c0,14.55 -1.07,26.53 -3.19,35.93 -2.12,9.41 -5.76,16.83 -10.91,22.29 -5.15,5.45 -11.98,9.25 -20.47,11.37 -8.48,2.12 -19.4,3.18 -32.74,3.18l-432.97 0c-26.69,0 -48.97,-2.58 -66.86,-7.73 -17.89,-5.15 -32.29,-12.89 -43.21,-23.19 -10.91,-10.31 -18.65,-23.66 -23.19,-40.02 -4.55,-16.37 -6.83,-35.79 -6.83,-58.22l0 -43.66c0,-18.8 2.27,-35.63 6.83,-50.48 4.54,-14.86 12.28,-27.43 23.19,-37.75 10.92,-10.3 25.32,-18.04 43.21,-23.19 17.89,-5.16 40.17,-7.73 66.86,-7.73l370.21 0 0 -17.29c0,-14.55 -1.52,-26.98 -4.55,-37.29 -3.03,-10.3 -8.18,-18.65 -15.46,-25.01 -7.28,-6.37 -17.29,-11.06 -30.03,-14.1 -12.73,-3.03 -29.1,-4.54 -49.11,-4.54l-380.21 0c-10.92,0 -16.37,-5.46 -16.37,-16.37l0 -76.4c0,-10.91 5.45,-16.37 16.37,-16.37l392.94 0zm60.04 399.31c9.7,0 16.52,-2.27 20.46,-6.83 3.95,-4.54 5.92,-12.58 5.92,-24.11l0 -80.04 -332.91 0c-18.79,0 -31.99,3.8 -39.57,11.37 -7.57,7.58 -11.36,18.65 -11.36,33.2l0 19.09c0,16.37 3.79,28.35 11.36,35.94 7.58,7.57 20.78,11.37 39.57,11.37l306.54 0z"/>
  <path class="fil1" d="M3875.8 4555.74c40.63,0 74.89,3.49 102.79,10.46 27.89,6.97 50.18,17.89 66.85,32.75 16.68,14.85 28.65,33.95 35.94,57.3 7.27,23.35 10.91,51.39 10.91,84.14l0 241.95c0,14.55 -1.07,26.53 -3.19,35.93 -2.12,9.41 -5.76,16.83 -10.91,22.29 -5.15,5.45 -11.98,9.25 -20.47,11.37 -8.48,2.12 -19.4,3.18 -32.74,3.18l-432.97 0c-26.69,0 -48.97,-2.58 -66.86,-7.73 -17.89,-5.15 -32.29,-12.89 -43.21,-23.19 -10.91,-10.31 -18.65,-23.66 -23.19,-40.02 -4.55,-16.37 -6.83,-35.79 -6.83,-58.22l0 -43.66c0,-18.8 2.27,-35.63 6.83,-50.48 4.54,-14.86 12.28,-27.43 23.19,-37.75 10.92,-10.3 25.32,-18.04 43.21,-23.19 17.89,-5.16 40.17,-7.73 66.86,-7.73l370.21 0 0 -17.29c0,-14.55 -1.52,-26.98 -4.55,-37.29 -3.03,-10.3 -8.18,-18.65 -15.46,-25.01 -7.28,-6.37 -17.29,-11.06 -30.03,-14.1 -12.73,-3.03 -29.1,-4.54 -49.11,-4.54l-380.21 0c-10.92,0 -16.37,-5.46 -16.37,-16.37l0 -76.4c0,-10.91 5.45,-16.37 16.37,-16.37l392.94 0zm60.04 399.31c9.7,0 16.52,-2.27 20.46,-6.83 3.95,-4.54 5.92,-12.58 5.92,-24.11l0 -80.04 -332.91 0c-18.79,0 -31.99,3.8 -39.57,11.37 -7.57,7.58 -11.36,18.65 -11.36,33.2l0 19.09c0,16.37 3.79,28.35 11.36,35.94 7.58,7.57 20.78,11.37 39.57,11.37l306.54 0z"/>
  <path class="fil1" d="M3087.19 4555.74l0 -120.06c0,-13.34 6.67,-20.01 20.01,-20.01l90.05 0c13.34,0 20.01,6.67 20.01,20.01l0 120.06 159.18 0c10.92,0 16.37,5.46 16.37,16.37l0 74.59c0,10.91 -5.45,16.36 -16.37,16.36l-159.18 0 0 211.03c0,25.47 5.15,44.12 15.47,55.95 10.3,11.82 30.62,17.74 60.94,17.74l88.23 0c10.91,0 16.37,5.45 16.37,16.36l0 74.59c0,10.91 -5.46,16.37 -16.37,16.37l-110.06 0c-36.38,0 -66.4,-3.34 -90.06,-10.01 -23.65,-6.67 -42.59,-17.28 -56.84,-31.84 -14.25,-14.55 -24.11,-33.34 -29.57,-56.39 -5.45,-23.04 -8.18,-50.63 -8.18,-82.77l0 -211.03 -86.41 0c-10.92,0 -16.37,-5.45 -16.37,-16.36l0 -74.59c0,-10.91 5.45,-16.37 16.37,-16.37l86.41 0z"/>
  <path class="fil1" d="M2716.07 4555.74c40.63,0 74.89,3.49 102.78,10.46 27.89,6.97 50.18,17.89 66.86,32.75 16.67,14.85 28.65,33.95 35.93,57.3 7.27,23.35 10.91,51.39 10.91,84.14l0 130.98c0,32.75 -3.64,60.8 -10.91,84.14 -7.27,23.35 -19.25,42.45 -35.93,57.31 -16.68,14.86 -38.96,25.62 -66.86,32.29 -27.89,6.67 -62.15,10.01 -102.78,10.01l-341.1 0 0 181.01c0,13.33 -6.68,20.01 -20.01,20.01l-89.14 0c-13.95,0 -20.92,-6.68 -20.92,-20.01l0 -495.73c0,-32.75 3.64,-60.79 10.91,-84.14 7.27,-23.35 19.25,-42.45 35.93,-57.3 16.68,-14.86 38.82,-25.78 66.4,-32.75 27.59,-6.98 62,-10.46 103.24,-10.46l254.69 0zm-341.1 390.22l328.36 0c20.01,0 36.38,-1.51 49.12,-4.54 12.74,-3.04 22.89,-8.49 30.47,-16.37 7.57,-7.88 12.89,-18.2 15.91,-30.93 3.03,-12.74 4.54,-28.8 4.54,-48.2l0 -80.96c0,-18.79 -1.51,-34.71 -4.54,-47.75 -3.03,-13.03 -8.34,-23.34 -15.91,-30.92 -7.58,-7.58 -17.74,-13.03 -30.47,-16.37 -12.74,-3.34 -29.11,-5 -49.12,-5l-229.21 0c-19.4,0 -35.48,1.66 -48.21,5 -12.74,3.34 -22.89,8.79 -30.46,16.37 -7.58,7.58 -12.9,17.89 -15.92,30.92 -3.03,13.04 -4.54,28.96 -4.54,47.75l0 181.01z"/>
  <path class="fil1" d="M1933.82 4555.74c40.63,0 74.89,3.49 102.79,10.46 27.89,6.97 50.18,17.89 66.85,32.75 16.68,14.85 28.65,33.95 35.94,57.3 7.27,23.35 10.91,51.39 10.91,84.14l0 241.95c0,14.55 -1.07,26.53 -3.19,35.93 -2.12,9.41 -5.76,16.83 -10.91,22.29 -5.15,5.45 -11.98,9.25 -20.47,11.37 -8.48,2.12 -19.4,3.18 -32.74,3.18l-432.97 0c-26.69,0 -48.97,-2.58 -66.86,-7.73 -17.89,-5.15 -32.29,-12.89 -43.21,-23.19 -10.91,-10.31 -18.65,-23.66 -23.19,-40.02 -4.55,-16.37 -6.83,-35.79 -6.83,-58.22l0 -43.66c0,-18.8 2.27,-35.63 6.83,-50.48 4.54,-14.86 12.28,-27.43 23.19,-37.75 10.92,-10.3 25.32,-18.04 43.21,-23.19 17.89,-5.16 40.17,-7.73 66.86,-7.73l370.21 0 0 -17.29c0,-14.55 -1.52,-26.98 -4.55,-37.29 -3.03,-10.3 -8.18,-18.65 -15.46,-25.01 -7.28,-6.37 -17.29,-11.06 -30.03,-14.1 -12.73,-3.03 -29.1,-4.54 -49.11,-4.54l-380.21 0c-10.92,0 -16.37,-5.46 -16.37,-16.37l0 -76.4c0,-10.91 5.45,-16.37 16.37,-16.37l392.94 0zm60.04 399.31c9.7,0 16.52,-2.27 20.46,-6.83 3.95,-4.54 5.92,-12.58 5.92,-24.11l0 -80.04 -332.91 0c-18.79,0 -31.99,3.8 -39.57,11.37 -7.57,7.58 -11.36,18.65 -11.36,33.2l0 19.09c0,16.37 3.79,28.35 11.36,35.94 7.58,7.57 20.78,11.37 39.57,11.37l306.54 0z"/>
  <path class="fil1" d="M1288.01 4555.74l0 -162.82c0,-13.34 6.67,-20.01 20.01,-20.01l89.14 0c13.33,0 20.01,6.67 20.01,20.01l0 478.44c0,32.75 -3.64,60.8 -10.92,84.14 -7.27,23.35 -19.25,42.45 -35.93,57.31 -16.67,14.86 -38.96,25.62 -66.86,32.29 -27.89,6.67 -62.15,10.01 -102.78,10.01l-254.69 0c-41.23,0 -75.65,-3.34 -103.23,-10.01 -27.59,-6.67 -49.73,-17.43 -66.4,-32.29 -16.68,-14.86 -28.66,-33.96 -35.94,-57.31 -7.27,-23.34 -10.91,-51.39 -10.91,-84.14l0 -130.98c0,-32.75 3.64,-60.79 10.91,-84.14 7.27,-23.35 19.25,-42.45 35.94,-57.3 16.67,-14.86 38.81,-25.78 66.4,-32.75 27.58,-6.98 62,-10.46 103.23,-10.46l342.01 0zm-100.06 390.22c20.02,0 36.38,-1.66 49.12,-5 12.74,-3.34 22.89,-8.79 30.47,-16.37 7.58,-7.58 12.89,-17.74 15.91,-30.47 3.04,-12.74 4.55,-28.8 4.55,-48.2l0 -181.01 -329.28 0c-19.4,0 -35.48,1.66 -48.2,5 -12.74,3.34 -22.9,8.79 -30.47,16.37 -7.58,7.58 -12.89,17.89 -15.91,30.92 -3.04,13.04 -4.55,28.96 -4.55,47.75l0 80.96c0,19.4 1.51,35.47 4.55,48.2 3.03,12.74 8.33,22.89 15.91,30.47 7.57,7.58 17.74,13.03 30.47,16.37 12.73,3.34 28.8,5 48.2,5l229.21 0z"/>
 </g>
</svg>
