<?xml version="1.0" encoding="UTF-8"?>
<!DOCTYPE svg PUBLIC "-//W3C//DTD SVG 1.1//EN" "http://www.w3.org/Graphics/SVG/1.1/DTD/svg11.dtd">
<!-- Creator: CorelDRAW 2021 (64-Bit) -->
<svg xmlns="http://www.w3.org/2000/svg" xml:space="preserve" width="41.0649mm" height="10.7437mm" version="1.1" style="shape-rendering:geometricPrecision; text-rendering:geometricPrecision; image-rendering:optimizeQuality; fill-rule:evenodd; clip-rule:evenodd"
viewBox="0 4800.29 4092.29 0.13"
 xmlns:xlink="http://www.w3.org/1999/xlink"
 xmlns:xodm="http://www.corel.com/coreldraw/odm/2003">
 <defs>
  <style type="text/css">
   <![CDATA[
    .fil0 {fill:#00CCFF}
    .fil1 {fill:white;fill-rule:nonzero}
    .fil2 {fill:#00CCFF;fill-rule:nonzero}
   ]]>
  </style>
 </defs>
 <g id="Capa_x0020_1">
  <metadata id="CorelCorpID_0Corel-Layer"/>
  <path class="fil2" d="M423.89 4555.74c40.63,0 74.89,3.49 102.79,10.46 27.89,6.97 50.18,17.89 66.85,32.75 16.68,14.85 28.65,33.95 35.94,57.3 7.27,23.35 10.91,51.39 10.91,84.14l0 241.95c0,14.55 -1.07,26.53 -3.19,35.93 -2.12,9.41 -5.76,16.83 -10.91,22.29 -5.15,5.45 -11.98,9.25 -20.47,11.37 -8.48,2.12 -19.4,3.18 -32.74,3.18l-432.97 0c-26.69,0 -48.97,-2.58 -66.86,-7.73 -17.89,-5.15 -32.29,-12.89 -43.21,-23.19 -10.91,-10.31 -18.65,-23.66 -23.19,-40.02 -4.55,-16.37 -6.83,-35.79 -6.83,-58.22l0 -43.66c0,-18.8 2.27,-35.63 6.83,-50.48 4.54,-14.86 12.28,-27.43 23.19,-37.75 10.92,-10.3 25.32,-18.04 43.21,-23.19 17.89,-5.16 40.17,-7.73 66.86,-7.73l370.21 0 0 -17.29c0,-14.55 -1.52,-26.98 -4.55,-37.29 -3.03,-10.3 -8.18,-18.65 -15.46,-25.01 -7.28,-6.37 -17.29,-11.06 -30.03,-14.1 -12.73,-3.03 -29.1,-4.54 -49.11,-4.54l-380.21 0c-10.92,0 -16.37,-5.46 -16.37,-16.37l0 -76.4c0,-10.91 5.45,-16.37 16.37,-16.37l392.94 0zm60.04 399.31c9.7,0 16.52,-2.27 20.46,-6.83 3.95,-4.54 5.92,-12.58 5.92,-24.11l0 -80.04 -332.91 0c-18.79,0 -31.99,3.8 -39.57,11.37 -7.57,7.58 -11.36,18.65 -11.36,33.2l0 19.09c0,16.37 3.79,28.35 11.36,35.94 7.58,7.57 20.78,11.37 39.57,11.37l306.54 0z"/>
  <path class="fil1" d="M3875.8 4555.74c40.63,0 74.89,3.49 102.79,10.46 27.89,6.97 50.18,17.89 66.85,32.75 16.68,14.85 28.65,33.95 35.94,57.3 7.27,23.35 10.91,51.39 10.91,84.14l0 241.95c0,14.55 -1.07,26.53 -3.19,35.93 -2.12,9.41 -5.76,16.83 -10.91,22.29 -5.15,5.45 -11.98,9.25 -20.47,11.37 -8.48,2.12 -19.4,3.18 -32.74,3.18l-432.97 0c-26.69,0 -48.97,-2.58 -66.86,-7.73 -17.89,-5.15 -32.29,-12.89 -43.21,-23.19 -10.91,-10.31 -18.65,-23.66 -23.19,-40.02 -4.55,-16.37 -6.83,-35.79 -6.83,-58.22l0 -43.66c0,-18.8 2.27,-35.63 6.83,-50.48 4.54,-14.86 12.28,-27.43 23.19,-37.75 10.92,-10.3 25.32,-18.04 43.21,-23.19 17.89,-5.16 40.17,-7.73 66.86,-7.73l370.21 0 0 -17.29c0,-14.55 -1.52,-26.98 -4.55,-37.29 -3.03,-10.3 -8.18,-18.65 -15.46,-25.01 -7.28,-6.37 -17.29,-11.06 -30.03,-14.1 -12.73,-3.03 -29.1,-4.54 -49.11,-4.54l-380.21 0c-10.92,0 -16.37,-5.46 -16.37,-16.37l0 -76.4c0,-10.91 5.45,-16.37 16.37,-16.37l392.94 0zm60.04 399.31c9.7,0 16.52,-2.27 20.46,-6.83 3.95,-4.54 5.92,-12.58 5.92,-24.11l0 -80.04 -332.91 0c-18.79,0 -31.99,3.8 -39.57,11.37 -7.57,7.58 -11.36,18.65 -11.36,33.2l0 19.09c0,16.37 3.79,28.35 11.36,35.94 7.58,7.57 20.78,11.37 39.57,11.37l306.54 0z"/>
  <path class="fil1" d="M3087.19 4555.74l0 -120.06c0,-13.34 6.67,-20.01 20.01,-20.01l90.05 0c13.34,0 20.01,6.67 20.01,20.01l0 120.06 159.18 0c10.92,0 16.37,5.46 16.37,16.37l0 74.59c0,10.91 -5.45,16.36 -16.37,16.36l-159.18 0 0 211.03c0,25.47 5.15,44.12 15.47,55.95 10.3,11.82 30.62,17.74 60.94,17.74l88.23 0c10.91,0 16.37,5.45 16.37,16.36l0 74.59c0,10.91 -5.46,16.37 -16.37,16.37l-110.06 0c-36.38,0 -66.4,-3.34 -90.06,-10.01 -23.65,-6.67 -42.59,-17.28 -56.84,-31.84 -14.25,-14.55 -24.11,-33.34 -29.57,-56.39 -5.45,-23.04 -8.18,-50.63 -8.18,-82.77l0 -211.03 -86.41 0c-10.92,0 -16.37,-5.45 -16.37,-16.36l0 -74.59c0,-10.91 5.45,-16.37 16.37,-16.37l86.41 0z"/>
  <path class="fil1" d="M2716.07 4555.74c40.63,0 74.89,3.49 102.78,10.46 27.89,6.97 50.18,17.89 66.86,32.75 16.67,14.85 28.65,33.95 35.93,57.3 7.27,23.35 10.91,51.39 10.91,84.14l0 130.98c0,32.75 -3.64,60.8 -10.91,84.14 -7.27,23.35 -19.25,42.45 -35.93,57.31 -16.68,14.86 -38.96,25.62 -66.86,32.29 -27.89,6.67 -62.15,10.01 -102.78,10.01l-341.1 0 0 181.01c0,13.33 -6.68,20.01 -20.01,20.01l-89.14 0c-13.95,0 -20.92,-6.68 -20.92,-20.01l0 -495.73c0,-32.75 3.64,-60.79 10.91,-84.14 7.27,-23.35 19.25,-42.45 35.93,-57.3 16.68,-14.86 38.82,-25.78 66.4,-32.75 27.59,-6.98 62,-10.46 103.24,-10.46l254.69 0zm-341.1 390.22l328.36 0c20.01,0 36.38,-1.51 49.12,-4.54 12.74,-3.04 22.89,-8.49 30.47,-16.37 7.57,-7.88 12.89,-18.2 15.91,-30.93 3.03,-12.74 4.54,-28.8 4.54,-48.2l0 -80.96c0,-18.79 -1.51,-34.71 -4.54,-47.75 -3.03,-13.03 -8.34,-23.34 -15.91,-30.92 -7.58,-7.58 -17.74,-13.03 -30.47,-16.37 -12.74,-3.34 -29.11,-5 -49.12,-5l-229.21 0c-19.4,0 -35.48,1.66 -48.21,5 -12.74,3.34 -22.89,8.79 -30.46,16.37 -7.58,7.58 -12.9,17.89 -15.92,30.92 -3.03,13.04 -4.54,28.96 -4.54,47.75l0 181.01z"/>
  <path class="fil1" d="M1933.82 4555.74c40.63,0 74.89,3.49 102.79,10.46 27.89,6.97 50.18,17.89 66.85,32.75 16.68,14.85 28.65,33.95 35.94,57.3 7.27,23.35 10.91,51.39 10.91,84.14l0 241.95c0,14.55 -1.07,26.53 -3.19,35.93 -2.12,9.41 -5.76,16.83 -10.91,22.29 -5.15,5.45 -11.98,9.25 -20.47,11.37 -8.48,2.12 -19.4,3.18 -32.74,3.18l-432.97 0c-26.69,0 -48.97,-2.58 -66.86,-7.73 -17.89,-5.15 -32.29,-12.89 -43.21,-23.19 -10.91,-10.31 -18.65,-23.66 -23.19,-40.02 -4.55,-16.37 -6.83,-35.79 -6.83,-58.22l0 -43.66c0,-18.8 2.27,-35.63 6.83,-50.48 4.54,-14.86 12.28,-27.43 23.19,-37.75 10.92,-10.3 25.32,-18.04 43.21,-23.19 17.89,-5.16 40.17,-7.73 66.86,-7.73l370.21 0 0 -17.29c0,-14.55 -1.52,-26.98 -4.55,-37.29 -3.03,-10.3 -8.18,-18.65 -15.46,-25.01 -7.28,-6.37 -17.29,-11.06 -30.03,-14.1 -12.73,-3.03 -29.1,-4.54 -49.11,-4.54l-380.21 0c-10.92,0 -16.37,-5.46 -16.37,-16.37l0 -76.4c0,-10.91 5.45,-16.37 16.37,-16.37l392.94 0zm60.04 399.31c9.7,0 16.52,-2.27 20.46,-6.83 3.95,-4.54 5.92,-12.58 5.92,-24.11l0 -80.04 -332.91 0c-18.79,0 -31.99,3.8 -39.57,11.37 -7.57,7.58 -11.36,18.65 -11.36,33.2l0 19.09c0,16.37 3.79,28.35 11.36,35.94 7.58,7.57 20.78,11.37 39.57,11.37l306.54 0z"/>
  <path class="fil1" d="M1288.01 4555.74l0 -162.82c0,-13.34 6.67,-20.01 20.01,-20.01l89.14 0c13.33,0 20.01,6.67 20.01,20.01l0 478.44c0,32.75 -3.64,60.8 -10.92,84.14 -7.27,23.35 -19.25,42.45 -35.93,57.31 -16.67,14.86 -38.96,25.62 -66.86,32.29 -27.89,6.67 -62.15,10.01 -102.78,10.01l-254.69 0c-41.23,0 -75.65,-3.34 -103.23,-10.01 -27.59,-6.67 -49.73,-17.43 -66.4,-32.29 -16.68,-14.86 -28.66,-33.96 -35.94,-57.31 -7.27,-23.34 -10.91,-51.39 -10.91,-84.14l0 -130.98c0,-32.75 3.64,-60.79 10.91,-84.14 7.27,-23.35 19.25,-42.45 35.94,-57.3 16.67,-14.86 38.81,-25.78 66.4,-32.75 27.58,-6.98 62,-10.46 103.23,-10.46l342.01 0zm-100.06 390.22c20.02,0 36.38,-1.66 49.12,-5 12.74,-3.34 22.89,-8.79 30.47,-16.37 7.58,-7.58 12.89,-17.74 15.91,-30.47 3.04,-12.74 4.55,-28.8 4.55,-48.2l0 -181.01 -329.28 0c-19.4,0 -35.48,1.66 -48.2,5 -12.74,3.34 -22.9,8.79 -30.47,16.37 -7.58,7.58 -12.89,17.89 -15.91,30.92 -3.04,13.04 -4.55,28.96 -4.55,47.75l0 80.96c0,19.4 1.51,35.47 4.55,48.2 3.03,12.74 8.33,22.89 15.91,30.47 7.57,7.58 17.74,13.03 30.47,16.37 12.73,3.34 28.8,5 48.2,5l229.21 0z"/>
 </g>
</svg>
